<svg width="1920" height="659" viewBox="0 0 1920 659" fill="none" xmlns="http://www.w3.org/2000/svg">
<path d="M12.6543 28.9395C12.6543 26.5371 12.9766 24.7174 13.6211 23.4805C14.2721 22.2435 15.2292 21.625 16.4922 21.625C17.612 21.625 18.4941 22.1263 19.1387 23.1289C19.9199 24.3398 20.3105 26.2767 20.3105 28.9395C20.3105 31.3288 19.9883 33.1452 19.3438 34.3887C18.6992 35.6257 17.7422 36.2441 16.4727 36.2441C15.3529 36.2441 14.4349 35.6973 13.7188 34.6035C13.0091 33.5098 12.6543 31.6217 12.6543 28.9395ZM14.1289 28.9395C14.1289 31.2637 14.3503 32.8229 14.793 33.6172C15.2422 34.4049 15.8151 34.7988 16.5117 34.7988C17.1693 34.7988 17.7194 34.3984 18.1621 33.5977C18.6048 32.7969 18.8262 31.2441 18.8262 28.9395C18.8262 26.6087 18.6016 25.0495 18.1523 24.2617C17.7096 23.474 17.1335 23.0801 16.4238 23.0801C15.7728 23.0801 15.2259 23.4805 14.7832 24.2812C14.347 25.082 14.1289 26.6348 14.1289 28.9395ZM27.2051 36H25.7598V24.7988C25.4277 25.1895 24.9818 25.5898 24.4219 26C23.862 26.4036 23.3477 26.7096 22.8789 26.918V25.2188C23.6732 24.763 24.373 24.2064 24.9785 23.5488C25.5905 22.8913 26.0202 22.25 26.2676 21.625H27.2051V36Z" fill="#666666"/>
<path d="M38.8789 99.9453L43.2539 101.285C42.2878 105.788 40.5924 109.151 38.168 111.375C35.7617 113.581 32.8268 114.684 29.3633 114.684C26.319 114.684 23.7122 113.945 21.543 112.469C19.3919 110.974 17.6237 108.586 16.2383 105.305C14.8711 102.023 14.1875 98.1497 14.1875 93.6836C14.1875 89.2721 14.8711 85.5443 16.2383 82.5C17.6237 79.4375 19.4922 77.1315 21.8438 75.582C24.1953 74.0143 26.8203 73.2305 29.7188 73.2305C32.8906 73.2305 35.6159 74.224 37.8945 76.2109C40.1732 78.1797 41.7682 81.0781 42.6797 84.9062L38.4141 86.1367C36.9557 80.5586 34.0299 77.7695 29.6367 77.7695C27.4492 77.7695 25.5534 78.3346 23.9492 79.4648C22.3451 80.5768 21.0599 82.3177 20.0938 84.6875C19.1458 87.0573 18.6719 90.056 18.6719 93.6836C18.6719 99.1706 19.638 103.29 21.5703 106.043C23.5026 108.777 26.0729 110.145 29.2812 110.145C31.651 110.145 33.6927 109.306 35.4062 107.629C37.138 105.934 38.2956 103.372 38.8789 99.9453ZM63.625 110.418C62.276 111.822 60.8724 112.879 59.4141 113.59C57.9557 114.301 56.4427 114.656 54.875 114.656C52.3958 114.656 50.418 113.909 48.9414 112.414C47.4648 110.919 46.7266 108.905 46.7266 106.371C46.7266 104.694 47.0729 103.208 47.7656 101.914C48.4583 100.62 49.4062 99.6081 50.6094 98.8789C51.8125 98.1497 53.6354 97.612 56.0781 97.2656C59.3594 96.7917 61.7656 96.2266 63.2969 95.5703L63.3242 94.3125C63.3242 92.3255 62.9688 90.931 62.2578 90.1289C61.2552 88.9622 59.7148 88.3789 57.6367 88.3789C55.7591 88.3789 54.3555 88.7708 53.4258 89.5547C52.4961 90.3203 51.8125 91.7695 51.375 93.9023L47.4102 93.2461C47.9753 90.1289 49.1146 87.8594 50.8281 86.4375C52.5599 85.0156 55.0299 84.3047 58.2383 84.3047C60.7357 84.3047 62.6953 84.7786 64.1172 85.7266C65.5391 86.6562 66.4323 87.8138 66.7969 89.1992C67.1797 90.5846 67.3711 92.6081 67.3711 95.2695V101.832C67.3711 106.426 67.4531 109.324 67.6172 110.527C67.7995 111.712 68.1458 112.87 68.6562 114H64.4453C64.026 112.997 63.7526 111.803 63.625 110.418ZM63.2969 99.4258C61.8203 100.155 59.6237 100.775 56.707 101.285C55.0117 101.577 53.8268 101.914 53.1523 102.297C52.4779 102.661 51.9492 103.19 51.5664 103.883C51.2018 104.557 51.0195 105.341 51.0195 106.234C51.0195 107.62 51.4479 108.732 52.3047 109.57C53.1615 110.391 54.3464 110.801 55.8594 110.801C57.2995 110.801 58.6029 110.427 59.7695 109.68C60.9544 108.932 61.8385 107.939 62.4219 106.699C63.0052 105.441 63.2969 103.618 63.2969 101.23V99.4258Z" fill="#666666"/>
<path d="M18.4317 133.637L19.4786 133.958C19.2474 135.035 18.8418 135.84 18.2616 136.372C17.6858 136.9 16.9836 137.164 16.1548 137.164C15.4263 137.164 14.8026 136.987 14.2835 136.634C13.7688 136.276 13.3457 135.704 13.0142 134.919C12.687 134.134 12.5234 133.207 12.5234 132.139C12.5234 131.083 12.687 130.191 13.0142 129.463C13.3457 128.73 13.7928 128.178 14.3555 127.807C14.9182 127.432 15.5463 127.244 16.2398 127.244C16.9988 127.244 17.6509 127.482 18.1962 127.958C18.7414 128.429 19.1231 129.122 19.3412 130.038L18.3205 130.333C17.9715 128.998 17.2715 128.331 16.2202 128.331C15.6968 128.331 15.2431 128.466 14.8593 128.736C14.4754 129.002 14.1679 129.419 13.9367 129.986C13.7099 130.553 13.5965 131.271 13.5965 132.139C13.5965 133.452 13.8277 134.437 14.29 135.096C14.7524 135.75 15.3674 136.077 16.1352 136.077C16.7022 136.077 17.1908 135.877 17.6008 135.475C18.0152 135.07 18.2922 134.457 18.4317 133.637ZM24.3531 136.143C24.0303 136.479 23.6945 136.732 23.3455 136.902C22.9965 137.072 22.6345 137.157 22.2594 137.157C21.6661 137.157 21.1929 136.978 20.8396 136.621C20.4862 136.263 20.3096 135.781 20.3096 135.175C20.3096 134.773 20.3924 134.418 20.5582 134.108C20.724 133.798 20.9508 133.556 21.2387 133.382C21.5266 133.207 21.9628 133.079 22.5473 132.996C23.3324 132.882 23.9082 132.747 24.2746 132.59L24.2812 132.289C24.2812 131.814 24.1961 131.48 24.026 131.288C23.7861 131.009 23.4175 130.869 22.9202 130.869C22.4709 130.869 22.1351 130.963 21.9126 131.151C21.6901 131.334 21.5266 131.681 21.4219 132.191L20.4731 132.034C20.6084 131.288 20.881 130.745 21.291 130.405C21.7054 130.064 22.2965 129.894 23.0642 129.894C23.6618 129.894 24.1307 130.008 24.4709 130.235C24.8111 130.457 25.0249 130.734 25.1121 131.066C25.2037 131.397 25.2495 131.881 25.2495 132.518V134.088C25.2495 135.188 25.2691 135.881 25.3084 136.169C25.352 136.453 25.4349 136.73 25.557 137H24.5494C24.4491 136.76 24.3837 136.474 24.3531 136.143ZM24.2746 133.513C23.9213 133.687 23.3957 133.835 22.6978 133.958C22.2921 134.027 22.0086 134.108 21.8472 134.2C21.6858 134.287 21.5593 134.413 21.4677 134.579C21.3804 134.74 21.3368 134.928 21.3368 135.142C21.3368 135.473 21.4393 135.739 21.6443 135.94C21.8493 136.136 22.1329 136.234 22.4949 136.234C22.8395 136.234 23.1514 136.145 23.4306 135.966C23.7141 135.787 23.9257 135.55 24.0652 135.253C24.2048 134.952 24.2746 134.516 24.2746 133.944V133.513ZM26.3814 134.926L27.3367 134.743C27.3934 135.231 27.5483 135.595 27.8013 135.835C28.0543 136.071 28.3901 136.189 28.8089 136.189C29.2276 136.189 29.5504 136.086 29.7772 135.881C30.0084 135.672 30.124 135.408 30.124 135.089C30.124 134.815 30.0259 134.601 29.8296 134.448C29.6944 134.344 29.3672 134.213 28.8481 134.056C28.0979 133.824 27.5963 133.628 27.3433 133.467C27.0903 133.305 26.894 133.089 26.7544 132.819C26.6148 132.549 26.545 132.241 26.545 131.896C26.545 131.303 26.7348 130.821 27.1143 130.45C27.4937 130.08 28.0194 129.894 28.6911 129.894C29.1142 129.894 29.485 129.971 29.8034 130.123C30.1262 130.276 30.3727 130.481 30.5428 130.738C30.7129 130.996 30.8307 131.364 30.8961 131.844L29.9539 132.001C29.8667 131.242 29.4545 130.863 28.7173 130.863C28.2985 130.863 27.9867 130.948 27.7816 131.118C27.5766 131.284 27.4741 131.497 27.4741 131.759C27.4741 132.016 27.5723 132.219 27.7686 132.368C27.8863 132.455 28.2353 132.594 28.8154 132.786C29.6137 133.044 30.1306 133.249 30.3661 133.401C30.6017 133.55 30.7849 133.755 30.9157 134.016C31.0466 134.274 31.112 134.581 31.112 134.939C31.112 135.602 30.9005 136.139 30.4773 136.549C30.0586 136.959 29.485 137.164 28.7565 137.164C27.3912 137.164 26.5995 136.418 26.3814 134.926ZM34.3966 135.947L34.5274 136.987C34.2614 137.057 34.0215 137.092 33.8077 137.092C33.4718 137.092 33.2014 137.026 32.9964 136.895C32.7914 136.76 32.6496 136.577 32.5711 136.346C32.4969 136.115 32.4599 135.654 32.4599 134.965V130.967H31.7532V130.051H32.4599V128.331L33.4217 127.624V130.051H34.3966V130.967H33.4217V135.031C33.4217 135.406 33.45 135.648 33.5067 135.757C33.5896 135.914 33.7445 135.992 33.9713 135.992C34.0803 135.992 34.2221 135.977 34.3966 135.947ZM38.4794 137V127.408H40.0432L41.9079 134.2L42.2809 135.619C42.3725 135.266 42.512 134.754 42.6996 134.082L44.584 127.408H45.9842V137H44.9831V128.972L42.6931 137H41.7574L39.4805 128.834V137H38.4794ZM47.1685 133.526C47.1685 132.326 47.4193 131.421 47.9209 130.81C48.4269 130.2 49.0659 129.894 49.838 129.894C50.597 129.894 51.2316 130.2 51.742 130.81C52.2523 131.421 52.5075 132.302 52.5075 133.454C52.5075 134.701 52.2567 135.63 51.7551 136.241C51.2534 136.852 50.6144 137.157 49.838 137.157C49.0746 137.157 48.4378 136.852 47.9274 136.241C47.4215 135.626 47.1685 134.721 47.1685 133.526ZM48.1564 133.526C48.1564 134.424 48.32 135.094 48.6472 135.534C48.9743 135.971 49.38 136.189 49.8642 136.189C50.3178 136.189 50.706 135.968 51.0288 135.528C51.356 135.083 51.5195 134.416 51.5195 133.526C51.5195 132.631 51.356 131.966 51.0288 131.53C50.7017 131.09 50.296 130.869 49.8118 130.869C49.3538 130.869 48.9634 131.09 48.6406 131.53C48.3178 131.971 48.1564 132.636 48.1564 133.526ZM53.6395 137V130.051H54.5097V131.039C54.719 130.656 54.9742 130.37 55.2752 130.182C55.5805 129.99 55.9295 129.894 56.3221 129.894C56.6274 129.894 56.9088 129.955 57.1661 130.078C57.4278 130.195 57.6372 130.352 57.7942 130.549C57.9556 130.741 58.0756 130.991 58.1541 131.301C58.2326 131.611 58.2719 132.086 58.2719 132.727V137H57.3035V132.773C57.3035 132.263 57.2599 131.89 57.1727 131.654C57.0854 131.419 56.948 131.238 56.7604 131.111C56.5772 130.98 56.3635 130.915 56.1192 130.915C55.6569 130.915 55.2883 131.087 55.0135 131.432C54.7387 131.777 54.6013 132.368 54.6013 133.205V137H53.6395ZM59.3907 133.526C59.3907 132.326 59.6415 131.421 60.1432 130.81C60.6492 130.2 61.2882 129.894 62.0603 129.894C62.8192 129.894 63.4539 130.2 63.9643 130.81C64.4746 131.421 64.7298 132.302 64.7298 133.454C64.7298 134.701 64.479 135.63 63.9773 136.241C63.4757 136.852 62.8367 137.157 62.0603 137.157C61.2969 137.157 60.6601 136.852 60.1497 136.241C59.6437 135.626 59.3907 134.721 59.3907 133.526ZM60.3787 133.526C60.3787 134.424 60.5423 135.094 60.8694 135.534C61.1966 135.971 61.6022 136.189 62.0864 136.189C62.5401 136.189 62.9283 135.968 63.2511 135.528C63.5782 135.083 63.7418 134.416 63.7418 133.526C63.7418 132.631 63.5782 131.966 63.2511 131.53C62.9239 131.09 62.5183 130.869 62.0341 130.869C61.5761 130.869 61.1857 131.09 60.8629 131.53C60.5401 131.971 60.3787 132.636 60.3787 133.526ZM66.7516 137H65.8552V127.408H66.817V130.83C67.022 130.516 67.2532 130.283 67.5105 130.13C67.7723 129.973 68.0623 129.894 68.3808 129.894C68.8257 129.894 69.2292 130.027 69.5912 130.293C69.9576 130.56 70.2499 130.963 70.468 131.504C70.6861 132.045 70.7951 132.701 70.7951 133.473C70.7951 134.651 70.5487 135.561 70.0558 136.202C69.5629 136.839 68.9871 137.157 68.3284 137.157C67.9969 137.157 67.6981 137.072 67.432 136.902C67.1703 136.727 66.9435 136.47 66.7516 136.13V137ZM66.7385 133.473C66.7385 134.193 66.8039 134.732 66.9348 135.089C67.0656 135.447 67.251 135.72 67.4909 135.907C67.7308 136.095 67.9969 136.189 68.2892 136.189C68.6861 136.189 69.0372 135.966 69.3426 135.521C69.6523 135.072 69.8071 134.402 69.8071 133.513C69.8071 132.601 69.6588 131.931 69.3622 131.504C69.0656 131.076 68.7014 130.863 68.2695 130.863C67.8726 130.863 67.5171 131.087 67.203 131.537C66.8933 131.982 66.7385 132.627 66.7385 133.473ZM71.9467 137V127.408H72.9085V137H71.9467ZM74.0601 133.526C74.0601 132.326 74.3109 131.421 74.8125 130.81C75.3185 130.2 75.9575 129.894 76.7296 129.894C77.4886 129.894 78.1232 130.2 78.6336 130.81C79.1439 131.421 79.3991 132.302 79.3991 133.454C79.3991 134.701 79.1483 135.63 78.6467 136.241C78.1451 136.852 77.506 137.157 76.7296 137.157C75.9662 137.157 75.3294 136.852 74.819 136.241C74.3131 135.626 74.0601 134.721 74.0601 133.526ZM75.048 133.526C75.048 134.424 75.2116 135.094 75.5388 135.534C75.8659 135.971 76.2716 136.189 76.7558 136.189C77.2094 136.189 77.5976 135.968 77.9204 135.528C78.2476 135.083 78.4111 134.416 78.4111 133.526C78.4111 132.631 78.2476 131.966 77.9204 131.53C77.5933 131.09 77.1876 130.869 76.7034 130.869C76.2454 130.869 75.855 131.09 75.5322 131.53C75.2094 131.971 75.048 132.636 75.048 133.526ZM84.2671 134.455L85.2158 134.605C85.1068 135.434 84.832 136.067 84.3914 136.503C83.9552 136.939 83.4296 137.157 82.8145 137.157C82.0686 137.157 81.4536 136.852 80.9694 136.241C80.4896 135.626 80.2497 134.719 80.2497 133.519C80.2497 132.311 80.4918 131.406 80.976 130.804C81.4645 130.197 82.0905 129.894 82.8538 129.894C83.4427 129.894 83.9378 130.078 84.3391 130.444C84.7447 130.81 85.0043 131.36 85.1177 132.093L84.182 132.269C84.0904 131.798 83.9312 131.447 83.7044 131.216C83.4776 130.98 83.2049 130.863 82.8865 130.863C82.4111 130.863 82.0163 131.074 81.7022 131.497C81.3925 131.916 81.2377 132.583 81.2377 133.5C81.2377 134.446 81.386 135.131 81.6826 135.554C81.9836 135.977 82.3674 136.189 82.8342 136.189C83.2006 136.189 83.5125 136.049 83.7698 135.77C84.0315 135.486 84.1973 135.048 84.2671 134.455ZM86.0533 137V127.408H87.0151V132.878L89.3052 130.051H90.5549L88.3761 132.629L90.7708 137H89.5865L87.6956 133.447L87.0151 134.245V137H86.0533Z" fill="#666666"/>
<rect x="2" y="2" width="146" height="156" stroke="#666666" stroke-width="4"/>
<path d="M610.635 28.9395C610.635 26.5371 610.957 24.7174 611.602 23.4805C612.253 22.2435 613.21 21.625 614.473 21.625C615.592 21.625 616.475 22.1263 617.119 23.1289C617.9 24.3398 618.291 26.2767 618.291 28.9395C618.291 31.3288 617.969 33.1452 617.324 34.3887C616.68 35.6257 615.723 36.2441 614.453 36.2441C613.333 36.2441 612.415 35.6973 611.699 34.6035C610.99 33.5098 610.635 31.6217 610.635 28.9395ZM612.109 28.9395C612.109 31.2637 612.331 32.8229 612.773 33.6172C613.223 34.4049 613.796 34.7988 614.492 34.7988C615.15 34.7988 615.7 34.3984 616.143 33.5977C616.585 32.7969 616.807 31.2441 616.807 28.9395C616.807 26.6087 616.582 25.0495 616.133 24.2617C615.69 23.474 615.114 23.0801 614.404 23.0801C613.753 23.0801 613.206 23.4805 612.764 24.2812C612.327 25.082 612.109 26.6348 612.109 28.9395ZM627.354 34.3105V36H619.59C619.57 35.3164 619.775 34.5514 620.205 33.7051C620.641 32.8587 621.436 31.8594 622.588 30.707C623.936 29.3659 624.818 28.3307 625.234 27.6016C625.651 26.8659 625.859 26.1823 625.859 25.5508C625.859 24.8216 625.645 24.2292 625.215 23.7734C624.792 23.3112 624.268 23.0801 623.643 23.0801C622.972 23.0801 622.422 23.3275 621.992 23.8223C621.562 24.3171 621.348 25.0267 621.348 25.9512L619.863 25.7656C619.967 24.3919 620.355 23.36 621.025 22.6699C621.702 21.9733 622.591 21.625 623.691 21.625C624.889 21.625 625.794 22.0286 626.406 22.8359C627.025 23.6432 627.334 24.5612 627.334 25.5898C627.334 26.5013 627.093 27.377 626.611 28.2168C626.13 29.0501 625.215 30.1634 623.867 31.5566C623.008 32.4355 622.451 33.0345 622.197 33.3535C621.95 33.6725 621.748 33.9915 621.592 34.3105H627.354Z" fill="#666666"/>
<path d="M613.508 114V73.9141H628.082C631.126 73.9141 633.368 74.2878 634.809 75.0352C636.267 75.7826 637.461 77.0312 638.391 78.7812C639.32 80.513 639.785 82.5273 639.785 84.8242C639.785 87.8503 638.992 90.3021 637.406 92.1797C635.839 94.0573 633.551 95.2513 630.543 95.7617C631.764 96.4909 632.694 97.2292 633.332 97.9766C634.626 99.5078 635.766 101.212 636.75 103.09L642.492 114H637.023L632.648 105.66C630.953 102.397 629.668 100.201 628.793 99.0703C627.936 97.9401 627.098 97.1836 626.277 96.8008C625.475 96.3997 624.345 96.1992 622.887 96.1992H617.855V114H613.508ZM617.855 91.6055H627.207C629.249 91.6055 630.798 91.3594 631.855 90.8672C632.913 90.375 633.751 89.6003 634.371 88.543C634.991 87.4857 635.301 86.2552 635.301 84.8516C635.301 82.8281 634.708 81.2422 633.523 80.0938C632.339 78.9271 630.579 78.3438 628.246 78.3438H617.855V91.6055ZM644.543 105.332L648.535 104.566C648.772 106.608 649.419 108.13 650.477 109.133C651.534 110.117 652.938 110.609 654.688 110.609C656.438 110.609 657.786 110.181 658.734 109.324C659.701 108.449 660.184 107.346 660.184 106.016C660.184 104.867 659.773 103.974 658.953 103.336C658.388 102.898 657.021 102.352 654.852 101.695C651.716 100.729 649.62 99.9089 648.562 99.2344C647.505 98.5599 646.685 97.6576 646.102 96.5273C645.518 95.3971 645.227 94.112 645.227 92.6719C645.227 90.1927 646.02 88.1784 647.605 86.6289C649.191 85.0794 651.388 84.3047 654.195 84.3047C655.964 84.3047 657.513 84.6237 658.844 85.2617C660.193 85.8997 661.223 86.7565 661.934 87.832C662.645 88.9076 663.137 90.4479 663.41 92.4531L659.473 93.1094C659.108 89.9375 657.385 88.3516 654.305 88.3516C652.555 88.3516 651.251 88.707 650.395 89.418C649.538 90.1107 649.109 91.0039 649.109 92.0977C649.109 93.1732 649.52 94.0208 650.34 94.6406C650.832 95.0052 652.29 95.5885 654.715 96.3906C658.051 97.4661 660.211 98.3229 661.195 98.9609C662.18 99.5807 662.945 100.438 663.492 101.531C664.039 102.607 664.312 103.892 664.312 105.387C664.312 108.158 663.428 110.4 661.66 112.113C659.91 113.827 657.513 114.684 654.469 114.684C648.763 114.684 645.454 111.566 644.543 105.332Z" fill="#666666"/>
<path d="M610.903 137V127.408H616.209V128.54H611.943V131.51H615.634V132.642H611.943V137H610.903ZM617.04 133.526C617.04 132.326 617.291 131.421 617.793 130.81C618.299 130.2 618.938 129.894 619.71 129.894C620.469 129.894 621.104 130.2 621.614 130.81C622.124 131.421 622.379 132.302 622.379 133.454C622.379 134.701 622.129 135.63 621.627 136.241C621.125 136.852 620.486 137.157 619.71 137.157C618.947 137.157 618.31 136.852 617.799 136.241C617.293 135.626 617.04 134.721 617.04 133.526ZM618.028 133.526C618.028 134.424 618.192 135.094 618.519 135.534C618.846 135.971 619.252 136.189 619.736 136.189C620.19 136.189 620.578 135.968 620.901 135.528C621.228 135.083 621.391 134.416 621.391 133.526C621.391 132.631 621.228 131.966 620.901 131.53C620.574 131.09 620.168 130.869 619.684 130.869C619.226 130.869 618.835 131.09 618.512 131.53C618.19 131.971 618.028 132.636 618.028 133.526ZM623.511 137V130.051H624.382V131.105C624.604 130.616 624.807 130.293 624.99 130.136C625.178 129.975 625.387 129.894 625.618 129.894C625.941 129.894 626.27 130.021 626.606 130.274L626.279 131.367C626.039 131.196 625.806 131.111 625.579 131.111C625.374 131.111 625.186 131.183 625.016 131.327C624.846 131.471 624.726 131.672 624.656 131.929C624.534 132.378 624.473 132.856 624.473 133.362V137H623.511ZM626.992 137.576L627.934 137.746C627.978 138.117 628.109 138.391 628.327 138.57C628.545 138.754 628.848 138.845 629.236 138.845C629.66 138.845 629.995 138.743 630.244 138.538C630.497 138.337 630.669 138.036 630.761 137.635C630.818 137.39 630.846 136.876 630.846 136.091C630.637 136.392 630.401 136.618 630.139 136.771C629.878 136.924 629.588 137 629.269 137C628.589 137 628.024 136.712 627.575 136.136C627.06 135.473 626.802 134.586 626.802 133.473C626.802 132.727 626.916 132.075 627.143 131.517C627.369 130.959 627.666 130.549 628.033 130.287C628.403 130.025 628.818 129.894 629.276 129.894C629.612 129.894 629.917 129.977 630.192 130.143C630.471 130.309 630.717 130.557 630.931 130.889V130.051H631.821V136.058C631.821 137.126 631.734 137.888 631.559 138.341C631.385 138.799 631.099 139.159 630.702 139.421C630.305 139.687 629.827 139.82 629.269 139.82C628.532 139.82 627.965 139.622 627.568 139.225C627.171 138.828 626.979 138.278 626.992 137.576ZM627.797 133.401C627.797 134.313 627.947 134.978 628.248 135.397C628.549 135.816 628.918 136.025 629.354 136.025C629.79 136.025 630.161 135.82 630.467 135.41C630.772 135 630.925 134.348 630.925 133.454C630.925 132.581 630.767 131.934 630.453 131.51C630.139 131.083 629.758 130.869 629.308 130.869C628.907 130.869 628.554 131.083 628.248 131.51C627.947 131.934 627.797 132.564 627.797 133.401ZM637.186 134.762L638.181 134.913C638.015 135.654 637.714 136.215 637.278 136.594C636.846 136.969 636.309 137.157 635.668 137.157C634.861 137.157 634.207 136.852 633.705 136.241C633.208 135.626 632.959 134.74 632.959 133.585C632.959 132.385 633.21 131.471 633.712 130.843C634.218 130.211 634.857 129.894 635.629 129.894C636.366 129.894 636.981 130.204 637.474 130.823C637.967 131.443 638.213 132.339 638.213 133.513L638.207 133.827H633.954C633.993 134.607 634.174 135.196 634.497 135.593C634.82 135.99 635.212 136.189 635.675 136.189C636.399 136.189 636.903 135.713 637.186 134.762ZM634.013 132.858H637.193C637.149 132.256 637.02 131.807 636.807 131.51C636.497 131.079 636.102 130.863 635.622 130.863C635.191 130.863 634.822 131.044 634.517 131.406C634.211 131.763 634.043 132.248 634.013 132.858ZM643.094 137V136.123C642.92 136.459 642.695 136.716 642.421 136.895C642.146 137.07 641.849 137.157 641.531 137.157C640.859 137.157 640.277 136.841 639.784 136.208C639.295 135.571 639.051 134.677 639.051 133.526C639.051 132.736 639.16 132.067 639.378 131.517C639.596 130.967 639.886 130.56 640.248 130.293C640.615 130.027 641.02 129.894 641.465 129.894C641.784 129.894 642.078 129.979 642.349 130.15C642.623 130.315 642.85 130.549 643.029 130.85V127.408H643.997V137H643.094ZM640.039 133.532C640.039 134.431 640.194 135.098 640.503 135.534C640.817 135.971 641.182 136.189 641.596 136.189C642.006 136.189 642.362 135.979 642.663 135.561C642.964 135.142 643.114 134.509 643.114 133.663C643.114 132.69 642.964 131.982 642.663 131.537C642.362 131.087 641.982 130.863 641.524 130.863C641.118 130.863 640.769 131.079 640.477 131.51C640.185 131.938 640.039 132.612 640.039 133.532ZM648.682 137V127.408H650.246L652.111 134.2L652.484 135.619C652.575 135.266 652.715 134.754 652.902 134.082L654.787 127.408H656.187V137H655.186V128.972L652.896 137H651.96L649.683 128.834V137H648.682ZM657.371 133.526C657.371 132.326 657.622 131.421 658.124 130.81C658.63 130.2 659.269 129.894 660.041 129.894C660.8 129.894 661.434 130.2 661.945 130.81C662.455 131.421 662.71 132.302 662.71 133.454C662.71 134.701 662.459 135.63 661.958 136.241C661.456 136.852 660.817 137.157 660.041 137.157C659.277 137.157 658.641 136.852 658.13 136.241C657.624 135.626 657.371 134.721 657.371 133.526ZM658.359 133.526C658.359 134.424 658.523 135.094 658.85 135.534C659.177 135.971 659.583 136.189 660.067 136.189C660.521 136.189 660.909 135.968 661.232 135.528C661.559 135.083 661.722 134.416 661.722 133.526C661.722 132.631 661.559 131.966 661.232 131.53C660.904 131.09 660.499 130.869 660.015 130.869C659.557 130.869 659.166 131.09 658.843 131.53C658.521 131.971 658.359 132.636 658.359 133.526ZM663.842 137V130.051H664.712V131.039C664.922 130.656 665.177 130.37 665.478 130.182C665.783 129.99 666.132 129.894 666.525 129.894C666.83 129.894 667.111 129.955 667.369 130.078C667.631 130.195 667.84 130.352 667.997 130.549C668.158 130.741 668.278 130.991 668.357 131.301C668.435 131.611 668.475 132.086 668.475 132.727V137H667.506V132.773C667.506 132.263 667.463 131.89 667.375 131.654C667.288 131.419 667.151 131.238 666.963 131.111C666.78 130.98 666.566 130.915 666.322 130.915C665.86 130.915 665.491 131.087 665.216 131.432C664.941 131.777 664.804 132.368 664.804 133.205V137H663.842ZM669.593 133.526C669.593 132.326 669.844 131.421 670.346 130.81C670.852 130.2 671.491 129.894 672.263 129.894C673.022 129.894 673.657 130.2 674.167 130.81C674.677 131.421 674.933 132.302 674.933 133.454C674.933 134.701 674.682 135.63 674.18 136.241C673.678 136.852 673.039 137.157 672.263 137.157C671.5 137.157 670.863 136.852 670.352 136.241C669.846 135.626 669.593 134.721 669.593 133.526ZM670.581 133.526C670.581 134.424 670.745 135.094 671.072 135.534C671.399 135.971 671.805 136.189 672.289 136.189C672.743 136.189 673.131 135.968 673.454 135.528C673.781 135.083 673.945 134.416 673.945 133.526C673.945 132.631 673.781 131.966 673.454 131.53C673.127 131.09 672.721 130.869 672.237 130.869C671.779 130.869 671.388 131.09 671.066 131.53C670.743 131.971 670.581 132.636 670.581 133.526ZM676.954 137H676.058V127.408H677.02V130.83C677.225 130.516 677.456 130.283 677.713 130.13C677.975 129.973 678.265 129.894 678.583 129.894C679.028 129.894 679.432 130.027 679.794 130.293C680.16 130.56 680.453 130.963 680.671 131.504C680.889 132.045 680.998 132.701 680.998 133.473C680.998 134.651 680.751 135.561 680.258 136.202C679.766 136.839 679.19 137.157 678.531 137.157C678.2 137.157 677.901 137.072 677.635 136.902C677.373 136.727 677.146 136.47 676.954 136.13V137ZM676.941 133.473C676.941 134.193 677.007 134.732 677.137 135.089C677.268 135.447 677.454 135.72 677.694 135.907C677.934 136.095 678.2 136.189 678.492 136.189C678.889 136.189 679.24 135.966 679.545 135.521C679.855 135.072 680.01 134.402 680.01 133.513C680.01 132.601 679.862 131.931 679.565 131.504C679.268 131.076 678.904 130.863 678.472 130.863C678.075 130.863 677.72 131.087 677.406 131.537C677.096 131.982 676.941 132.627 676.941 133.473ZM682.149 137V127.408H683.111V137H682.149ZM684.263 133.526C684.263 132.326 684.514 131.421 685.015 130.81C685.521 130.2 686.16 129.894 686.932 129.894C687.691 129.894 688.326 130.2 688.836 130.81C689.347 131.421 689.602 132.302 689.602 133.454C689.602 134.701 689.351 135.63 688.849 136.241C688.348 136.852 687.709 137.157 686.932 137.157C686.169 137.157 685.532 136.852 685.022 136.241C684.516 135.626 684.263 134.721 684.263 133.526ZM685.251 133.526C685.251 134.424 685.414 135.094 685.742 135.534C686.069 135.971 686.474 136.189 686.958 136.189C687.412 136.189 687.8 135.968 688.123 135.528C688.45 135.083 688.614 134.416 688.614 133.526C688.614 132.631 688.45 131.966 688.123 131.53C687.796 131.09 687.39 130.869 686.906 130.869C686.448 130.869 686.058 131.09 685.735 131.53C685.412 131.971 685.251 132.636 685.251 133.526ZM694.47 134.455L695.419 134.605C695.31 135.434 695.035 136.067 694.594 136.503C694.158 136.939 693.632 137.157 693.017 137.157C692.271 137.157 691.656 136.852 691.172 136.241C690.692 135.626 690.452 134.719 690.452 133.519C690.452 132.311 690.695 131.406 691.179 130.804C691.667 130.197 692.293 129.894 693.057 129.894C693.645 129.894 694.14 130.078 694.542 130.444C694.947 130.81 695.207 131.36 695.32 132.093L694.385 132.269C694.293 131.798 694.134 131.447 693.907 131.216C693.68 130.98 693.408 130.863 693.089 130.863C692.614 130.863 692.219 131.074 691.905 131.497C691.595 131.916 691.44 132.583 691.44 133.5C691.44 134.446 691.589 135.131 691.885 135.554C692.186 135.977 692.57 136.189 693.037 136.189C693.403 136.189 693.715 136.049 693.973 135.77C694.234 135.486 694.4 135.048 694.47 134.455ZM696.256 137V127.408H697.218V132.878L699.508 130.051H700.758L698.579 132.629L700.974 137H699.789L697.898 133.447L697.218 134.245V137H696.256Z" fill="#666666"/>
<rect x="599.98" y="2" width="146" height="156" stroke="#666666" stroke-width="4"/>
<path d="M1208.67 28.9395C1208.67 26.5371 1209 24.7174 1209.64 23.4805C1210.29 22.2435 1211.25 21.625 1212.51 21.625C1213.63 21.625 1214.51 22.1263 1215.16 23.1289C1215.94 24.3398 1216.33 26.2767 1216.33 28.9395C1216.33 31.3288 1216.01 33.1452 1215.36 34.3887C1214.72 35.6257 1213.76 36.2441 1212.49 36.2441C1211.37 36.2441 1210.45 35.6973 1209.74 34.6035C1209.03 33.5098 1208.67 31.6217 1208.67 28.9395ZM1210.15 28.9395C1210.15 31.2637 1210.37 32.8229 1210.81 33.6172C1211.26 34.4049 1211.83 34.7988 1212.53 34.7988C1213.19 34.7988 1213.74 34.3984 1214.18 33.5977C1214.62 32.7969 1214.85 31.2441 1214.85 28.9395C1214.85 26.6087 1214.62 25.0495 1214.17 24.2617C1213.73 23.474 1213.15 23.0801 1212.44 23.0801C1211.79 23.0801 1211.25 23.4805 1210.8 24.2812C1210.37 25.082 1210.15 26.6348 1210.15 28.9395ZM1217.8 32.2207L1219.25 31.9863C1219.55 33.8613 1220.31 34.7988 1221.53 34.7988C1222.18 34.7988 1222.75 34.5221 1223.23 33.9688C1223.72 33.4089 1223.96 32.6862 1223.96 31.8008C1223.96 30.9674 1223.74 30.2969 1223.29 29.7891C1222.85 29.2812 1222.31 29.0273 1221.66 29.0273C1221.39 29.0273 1221.05 29.0924 1220.65 29.2227L1220.81 27.6797L1221.04 27.6992C1221.75 27.6992 1222.32 27.4811 1222.77 27.0449C1223.21 26.6087 1223.43 26.026 1223.43 25.2969C1223.43 24.6263 1223.24 24.0892 1222.87 23.6855C1222.5 23.2754 1222.05 23.0703 1221.52 23.0703C1220.96 23.0703 1220.49 23.2852 1220.11 23.7148C1219.73 24.138 1219.49 24.7826 1219.39 25.6484L1217.95 25.3359C1218.13 24.112 1218.54 23.1875 1219.18 22.5625C1219.82 21.9375 1220.59 21.625 1221.5 21.625C1222.45 21.625 1223.25 21.9766 1223.92 22.6797C1224.58 23.3828 1224.91 24.2682 1224.91 25.3359C1224.91 25.987 1224.77 26.5632 1224.48 27.0645C1224.2 27.5658 1223.81 27.9596 1223.3 28.2461C1223.77 28.3763 1224.16 28.5911 1224.46 28.8906C1224.77 29.1901 1225.02 29.5905 1225.21 30.0918C1225.4 30.5931 1225.49 31.153 1225.49 31.7715C1225.49 33.0866 1225.1 34.1641 1224.33 35.0039C1223.55 35.8372 1222.63 36.2539 1221.54 36.2539C1220.54 36.2539 1219.69 35.8893 1219 35.1602C1218.3 34.431 1217.9 33.4512 1217.8 32.2207Z" fill="#666666"/>
<path d="M1234.9 99.9453L1239.27 101.285C1238.31 105.788 1236.61 109.151 1234.19 111.375C1231.78 113.581 1228.85 114.684 1225.38 114.684C1222.34 114.684 1219.73 113.945 1217.56 112.469C1215.41 110.974 1213.64 108.586 1212.26 105.305C1210.89 102.023 1210.21 98.1497 1210.21 93.6836C1210.21 89.2721 1210.89 85.5443 1212.26 82.5C1213.64 79.4375 1215.51 77.1315 1217.86 75.582C1220.21 74.0143 1222.84 73.2305 1225.74 73.2305C1228.91 73.2305 1231.64 74.224 1233.91 76.2109C1236.19 78.1797 1237.79 81.0781 1238.7 84.9062L1234.43 86.1367C1232.98 80.5586 1230.05 77.7695 1225.66 77.7695C1223.47 77.7695 1221.57 78.3346 1219.97 79.4648C1218.36 80.5768 1217.08 82.3177 1216.11 84.6875C1215.17 87.0573 1214.69 90.056 1214.69 93.6836C1214.69 99.1706 1215.66 103.29 1217.59 106.043C1219.52 108.777 1222.09 110.145 1225.3 110.145C1227.67 110.145 1229.71 109.306 1231.43 107.629C1233.16 105.934 1234.32 103.372 1234.9 99.9453ZM1242.58 105.332L1246.57 104.566C1246.81 106.608 1247.46 108.13 1248.52 109.133C1249.57 110.117 1250.98 110.609 1252.73 110.609C1254.48 110.609 1255.83 110.181 1256.77 109.324C1257.74 108.449 1258.22 107.346 1258.22 106.016C1258.22 104.867 1257.81 103.974 1256.99 103.336C1256.43 102.898 1255.06 102.352 1252.89 101.695C1249.76 100.729 1247.66 99.9089 1246.6 99.2344C1245.54 98.5599 1244.72 97.6576 1244.14 96.5273C1243.56 95.3971 1243.27 94.112 1243.27 92.6719C1243.27 90.1927 1244.06 88.1784 1245.64 86.6289C1247.23 85.0794 1249.43 84.3047 1252.23 84.3047C1254 84.3047 1255.55 84.6237 1256.88 85.2617C1258.23 85.8997 1259.26 86.7565 1259.97 87.832C1260.68 88.9076 1261.18 90.4479 1261.45 92.4531L1257.51 93.1094C1257.15 89.9375 1255.42 88.3516 1252.34 88.3516C1250.59 88.3516 1249.29 88.707 1248.43 89.418C1247.58 90.1107 1247.15 91.0039 1247.15 92.0977C1247.15 93.1732 1247.56 94.0208 1248.38 94.6406C1248.87 95.0052 1250.33 95.5885 1252.75 96.3906C1256.09 97.4661 1258.25 98.3229 1259.23 98.9609C1260.22 99.5807 1260.98 100.438 1261.53 101.531C1262.08 102.607 1262.35 103.892 1262.35 105.387C1262.35 108.158 1261.47 110.4 1259.7 112.113C1257.95 113.827 1255.55 114.684 1252.51 114.684C1246.8 114.684 1243.49 111.566 1242.58 105.332Z" fill="#666666"/>
<path d="M1208.94 137V127.408H1214.25V128.54H1209.98V131.51H1213.67V132.642H1209.98V137H1208.94ZM1215.08 133.526C1215.08 132.326 1215.33 131.421 1215.83 130.81C1216.34 130.2 1216.98 129.894 1217.75 129.894C1218.51 129.894 1219.14 130.2 1219.65 130.81C1220.16 131.421 1220.42 132.302 1220.42 133.454C1220.42 134.701 1220.17 135.63 1219.67 136.241C1219.16 136.852 1218.53 137.157 1217.75 137.157C1216.99 137.157 1216.35 136.852 1215.84 136.241C1215.33 135.626 1215.08 134.721 1215.08 133.526ZM1216.07 133.526C1216.07 134.424 1216.23 135.094 1216.56 135.534C1216.89 135.971 1217.29 136.189 1217.78 136.189C1218.23 136.189 1218.62 135.968 1218.94 135.528C1219.27 135.083 1219.43 134.416 1219.43 133.526C1219.43 132.631 1219.27 131.966 1218.94 131.53C1218.61 131.09 1218.21 130.869 1217.72 130.869C1217.26 130.869 1216.87 131.09 1216.55 131.53C1216.23 131.971 1216.07 132.636 1216.07 133.526ZM1221.55 137V130.051H1222.42V131.105C1222.64 130.616 1222.85 130.293 1223.03 130.136C1223.22 129.975 1223.43 129.894 1223.66 129.894C1223.98 129.894 1224.31 130.021 1224.65 130.274L1224.32 131.367C1224.08 131.196 1223.84 131.111 1223.62 131.111C1223.41 131.111 1223.23 131.183 1223.06 131.327C1222.89 131.471 1222.77 131.672 1222.7 131.929C1222.57 132.378 1222.51 132.856 1222.51 133.362V137H1221.55ZM1225.03 137.576L1225.97 137.746C1226.02 138.117 1226.15 138.391 1226.37 138.57C1226.58 138.754 1226.89 138.845 1227.28 138.845C1227.7 138.845 1228.03 138.743 1228.28 138.538C1228.54 138.337 1228.71 138.036 1228.8 137.635C1228.86 137.39 1228.89 136.876 1228.89 136.091C1228.68 136.392 1228.44 136.618 1228.18 136.771C1227.92 136.924 1227.63 137 1227.31 137C1226.63 137 1226.06 136.712 1225.61 136.136C1225.1 135.473 1224.84 134.586 1224.84 133.473C1224.84 132.727 1224.95 132.075 1225.18 131.517C1225.41 130.959 1225.71 130.549 1226.07 130.287C1226.44 130.025 1226.86 129.894 1227.31 129.894C1227.65 129.894 1227.96 129.977 1228.23 130.143C1228.51 130.309 1228.76 130.557 1228.97 130.889V130.051H1229.86V136.058C1229.86 137.126 1229.77 137.888 1229.6 138.341C1229.42 138.799 1229.14 139.159 1228.74 139.421C1228.34 139.687 1227.87 139.82 1227.31 139.82C1226.57 139.82 1226 139.622 1225.61 139.225C1225.21 138.828 1225.02 138.278 1225.03 137.576ZM1225.84 133.401C1225.84 134.313 1225.99 134.978 1226.29 135.397C1226.59 135.816 1226.96 136.025 1227.39 136.025C1227.83 136.025 1228.2 135.82 1228.51 135.41C1228.81 135 1228.96 134.348 1228.96 133.454C1228.96 132.581 1228.81 131.934 1228.49 131.51C1228.18 131.083 1227.8 130.869 1227.35 130.869C1226.95 130.869 1226.59 131.083 1226.29 131.51C1225.99 131.934 1225.84 132.564 1225.84 133.401ZM1235.23 134.762L1236.22 134.913C1236.05 135.654 1235.75 136.215 1235.32 136.594C1234.88 136.969 1234.35 137.157 1233.71 137.157C1232.9 137.157 1232.25 136.852 1231.74 136.241C1231.25 135.626 1231 134.74 1231 133.585C1231 132.385 1231.25 131.471 1231.75 130.843C1232.26 130.211 1232.9 129.894 1233.67 129.894C1234.41 129.894 1235.02 130.204 1235.51 130.823C1236.01 131.443 1236.25 132.339 1236.25 133.513L1236.25 133.827H1231.99C1232.03 134.607 1232.21 135.196 1232.54 135.593C1232.86 135.99 1233.25 136.189 1233.71 136.189C1234.44 136.189 1234.94 135.713 1235.23 134.762ZM1232.05 132.858H1235.23C1235.19 132.256 1235.06 131.807 1234.85 131.51C1234.54 131.079 1234.14 130.863 1233.66 130.863C1233.23 130.863 1232.86 131.044 1232.56 131.406C1232.25 131.763 1232.08 132.248 1232.05 132.858ZM1241.13 137V136.123C1240.96 136.459 1240.73 136.716 1240.46 136.895C1240.18 137.07 1239.89 137.157 1239.57 137.157C1238.9 137.157 1238.32 136.841 1237.82 136.208C1237.33 135.571 1237.09 134.677 1237.09 133.526C1237.09 132.736 1237.2 132.067 1237.42 131.517C1237.64 130.967 1237.93 130.56 1238.29 130.293C1238.65 130.027 1239.06 129.894 1239.5 129.894C1239.82 129.894 1240.12 129.979 1240.39 130.15C1240.66 130.315 1240.89 130.549 1241.07 130.85V127.408H1242.04V137H1241.13ZM1238.08 133.532C1238.08 134.431 1238.23 135.098 1238.54 135.534C1238.86 135.971 1239.22 136.189 1239.64 136.189C1240.05 136.189 1240.4 135.979 1240.7 135.561C1241 135.142 1241.15 134.509 1241.15 133.663C1241.15 132.69 1241 131.982 1240.7 131.537C1240.4 131.087 1240.02 130.863 1239.56 130.863C1239.16 130.863 1238.81 131.079 1238.52 131.51C1238.22 131.938 1238.08 132.612 1238.08 133.532ZM1249.98 137H1249.01V129.495C1248.79 129.757 1248.49 130.025 1248.11 130.3C1247.74 130.57 1247.4 130.775 1247.08 130.915V129.777C1247.61 129.471 1248.08 129.098 1248.49 128.658C1248.9 128.217 1249.19 127.788 1249.35 127.369H1249.98V137ZM1252.01 137.164L1254.29 127.244H1255.07L1252.79 137.164H1252.01ZM1260.61 135.868V137H1255.4C1255.39 136.542 1255.53 136.029 1255.82 135.462C1256.11 134.895 1256.64 134.226 1257.41 133.454C1258.32 132.555 1258.91 131.862 1259.19 131.373C1259.46 130.88 1259.6 130.422 1259.6 129.999C1259.6 129.51 1259.46 129.114 1259.17 128.808C1258.89 128.499 1258.54 128.344 1258.12 128.344C1257.67 128.344 1257.3 128.509 1257.01 128.841C1256.73 129.172 1256.58 129.648 1256.58 130.267L1255.59 130.143C1255.66 129.223 1255.92 128.531 1256.37 128.069C1256.82 127.602 1257.41 127.369 1258.15 127.369C1258.95 127.369 1259.56 127.639 1259.97 128.18C1260.39 128.721 1260.59 129.336 1260.59 130.025C1260.59 130.636 1260.43 131.223 1260.11 131.785C1259.79 132.344 1259.17 133.089 1258.27 134.023C1257.69 134.612 1257.32 135.013 1257.15 135.227C1256.98 135.441 1256.85 135.654 1256.75 135.868H1260.61ZM1261.19 137.164L1263.46 127.244H1264.24L1261.96 137.164H1261.19ZM1264.69 134.468L1265.66 134.311C1265.86 135.567 1266.37 136.195 1267.19 136.195C1267.63 136.195 1268.01 136.01 1268.33 135.639C1268.66 135.264 1268.82 134.78 1268.82 134.187C1268.82 133.628 1268.67 133.179 1268.37 132.839C1268.08 132.498 1267.71 132.328 1267.28 132.328C1267.1 132.328 1266.87 132.372 1266.6 132.459L1266.71 131.425L1266.86 131.438C1267.34 131.438 1267.72 131.292 1268.02 131C1268.32 130.708 1268.46 130.317 1268.46 129.829C1268.46 129.38 1268.34 129.02 1268.09 128.749C1267.84 128.475 1267.54 128.337 1267.18 128.337C1266.81 128.337 1266.5 128.481 1266.24 128.769C1265.99 129.052 1265.82 129.484 1265.75 130.064L1264.79 129.855C1264.92 129.035 1265.19 128.416 1265.62 127.997C1266.04 127.578 1266.56 127.369 1267.17 127.369C1267.8 127.369 1268.35 127.604 1268.79 128.075C1269.24 128.546 1269.46 129.14 1269.46 129.855C1269.46 130.291 1269.36 130.677 1269.17 131.013C1268.98 131.349 1268.72 131.613 1268.38 131.805C1268.69 131.892 1268.95 132.036 1269.16 132.237C1269.36 132.437 1269.53 132.706 1269.65 133.042C1269.78 133.377 1269.84 133.753 1269.84 134.167C1269.84 135.048 1269.58 135.77 1269.07 136.333C1268.55 136.891 1267.92 137.17 1267.2 137.17C1266.53 137.17 1265.96 136.926 1265.49 136.437C1265.03 135.949 1264.76 135.292 1264.69 134.468ZM1270.71 134.121V132.937H1273.67V134.121H1270.71ZM1274.88 137V127.408H1277.84C1278.54 127.408 1279.05 127.469 1279.38 127.591C1279.84 127.757 1280.2 128.064 1280.47 128.514C1280.74 128.963 1280.88 129.515 1280.88 130.169C1280.88 131.033 1280.66 131.737 1280.21 132.283C1279.77 132.828 1279.01 133.1 1277.93 133.1H1275.92V137H1274.88ZM1275.92 131.968H1277.95C1278.59 131.968 1279.06 131.825 1279.36 131.537C1279.65 131.244 1279.8 130.806 1279.8 130.221C1279.8 129.842 1279.73 129.517 1279.58 129.247C1279.44 128.976 1279.26 128.791 1279.05 128.69C1278.84 128.59 1278.47 128.54 1277.93 128.54H1275.92V131.968ZM1282.06 128.762V127.408H1283.02V128.762H1282.06ZM1282.06 137V130.051H1283.02V137H1282.06ZM1288.41 134.762L1289.4 134.913C1289.24 135.654 1288.93 136.215 1288.5 136.594C1288.07 136.969 1287.53 137.157 1286.89 137.157C1286.08 137.157 1285.43 136.852 1284.93 136.241C1284.43 135.626 1284.18 134.74 1284.18 133.585C1284.18 132.385 1284.43 131.471 1284.93 130.843C1285.44 130.211 1286.08 129.894 1286.85 129.894C1287.59 129.894 1288.2 130.204 1288.69 130.823C1289.19 131.443 1289.43 132.339 1289.43 133.513L1289.43 133.827H1285.17C1285.21 134.607 1285.39 135.196 1285.72 135.593C1286.04 135.99 1286.43 136.189 1286.9 136.189C1287.62 136.189 1288.12 135.713 1288.41 134.762ZM1285.23 132.858H1288.41C1288.37 132.256 1288.24 131.807 1288.03 131.51C1287.72 131.079 1287.32 130.863 1286.84 130.863C1286.41 130.863 1286.04 131.044 1285.74 131.406C1285.43 131.763 1285.26 132.248 1285.23 132.858ZM1294.35 134.455L1295.3 134.605C1295.19 135.434 1294.92 136.067 1294.48 136.503C1294.04 136.939 1293.52 137.157 1292.9 137.157C1292.16 137.157 1291.54 136.852 1291.06 136.241C1290.58 135.626 1290.34 134.719 1290.34 133.519C1290.34 132.311 1290.58 131.406 1291.06 130.804C1291.55 130.197 1292.18 129.894 1292.94 129.894C1293.53 129.894 1294.02 130.078 1294.43 130.444C1294.83 130.81 1295.09 131.36 1295.2 132.093L1294.27 132.269C1294.18 131.798 1294.02 131.447 1293.79 131.216C1293.56 130.98 1293.29 130.863 1292.97 130.863C1292.5 130.863 1292.1 131.074 1291.79 131.497C1291.48 131.916 1291.32 132.583 1291.32 133.5C1291.32 134.446 1291.47 135.131 1291.77 135.554C1292.07 135.977 1292.45 136.189 1292.92 136.189C1293.29 136.189 1293.6 136.049 1293.86 135.77C1294.12 135.486 1294.28 135.048 1294.35 134.455ZM1300.01 134.762L1301.01 134.913C1300.84 135.654 1300.54 136.215 1300.11 136.594C1299.67 136.969 1299.14 137.157 1298.5 137.157C1297.69 137.157 1297.03 136.852 1296.53 136.241C1296.04 135.626 1295.79 134.74 1295.79 133.585C1295.79 132.385 1296.04 131.471 1296.54 130.843C1297.05 130.211 1297.68 129.894 1298.46 129.894C1299.19 129.894 1299.81 130.204 1300.3 130.823C1300.79 131.443 1301.04 132.339 1301.04 133.513L1301.03 133.827H1296.78C1296.82 134.607 1297 135.196 1297.32 135.593C1297.65 135.99 1298.04 136.189 1298.5 136.189C1299.23 136.189 1299.73 135.713 1300.01 134.762ZM1296.84 132.858H1300.02C1299.98 132.256 1299.85 131.807 1299.63 131.51C1299.32 131.079 1298.93 130.863 1298.45 130.863C1298.02 130.863 1297.65 131.044 1297.34 131.406C1297.04 131.763 1296.87 132.248 1296.84 132.858Z" fill="#666666"/>
<rect x="1198.02" y="2" width="146" height="156" stroke="#666666" stroke-width="4"/>
</svg>
