<svg width="106" height="35" viewBox="0 0 106 35" fill="none" xmlns="http://www.w3.org/2000/svg">
<g filter="url(#filter0_d_110_178)">
<path d="M4.07527 1.008H7.57527V17.976H17.7393V21H4.07527V1.008ZM19.7894 1.008H22.9814V4.032H19.7894V1.008ZM19.7894 6.524H22.9814V21H19.7894V6.524ZM25.0033 6.524H27.4113V2.184H30.6033V6.524H33.4873V8.904H30.6033V16.632C30.6033 16.968 30.6126 17.2573 30.6313 17.5C30.6686 17.7427 30.734 17.948 30.8273 18.116C30.9393 18.284 31.098 18.4147 31.3033 18.508C31.5086 18.5827 31.7886 18.62 32.1433 18.62C32.3673 18.62 32.5913 18.62 32.8153 18.62C33.0393 18.6013 33.2633 18.564 33.4873 18.508V20.972C33.1326 21.0093 32.7873 21.0467 32.4513 21.084C32.1153 21.1213 31.77 21.14 31.4153 21.14C30.5753 21.14 29.894 21.0653 29.3713 20.916C28.8673 20.748 28.466 20.5147 28.1673 20.216C27.8873 19.8987 27.6913 19.5067 27.5793 19.04C27.486 18.5733 27.43 18.0413 27.4113 17.444V8.904H25.0033V6.524ZM38.5275 14.336C38.5275 15.1013 38.6582 15.7547 38.9195 16.296C39.1808 16.8373 39.5448 17.2853 40.0115 17.64C40.4782 17.976 41.0102 18.228 41.6075 18.396C42.2235 18.5453 42.8862 18.62 43.5955 18.62C44.3608 18.62 45.0142 18.536 45.5555 18.368C46.0968 18.1813 46.5355 17.948 46.8715 17.668C47.2075 17.388 47.4502 17.0707 47.5995 16.716C47.7488 16.3427 47.8235 15.9693 47.8235 15.596C47.8235 14.8307 47.6462 14.2707 47.2915 13.916C46.9555 13.5427 46.5822 13.2813 46.1715 13.132C45.4622 12.8707 44.6315 12.628 43.6795 12.404C42.7462 12.1613 41.5888 11.8533 40.2075 11.48C39.3488 11.256 38.6302 10.9667 38.0515 10.612C37.4915 10.2387 37.0435 9.828 36.7075 9.38C36.3715 8.932 36.1288 8.456 35.9795 7.952C35.8488 7.448 35.7835 6.93467 35.7835 6.412C35.7835 5.404 35.9888 4.536 36.3995 3.808C36.8288 3.06133 37.3888 2.44533 38.0795 1.96C38.7702 1.47467 39.5542 1.12 40.4315 0.895998C41.3088 0.653333 42.1955 0.532 43.0915 0.532C44.1368 0.532 45.1168 0.672 46.0315 0.951999C46.9648 1.21333 47.7768 1.61467 48.4675 2.156C49.1768 2.69733 49.7368 3.36933 50.1475 4.172C50.5582 4.956 50.7635 5.87067 50.7635 6.916H47.2635C47.1702 5.628 46.7315 4.72267 45.9475 4.2C45.1635 3.65867 44.1648 3.388 42.9515 3.388C42.5408 3.388 42.1208 3.43467 41.6915 3.528C41.2622 3.60267 40.8702 3.74267 40.5155 3.948C40.1608 4.13467 39.8622 4.396 39.6195 4.732C39.3955 5.068 39.2835 5.488 39.2835 5.992C39.2835 6.70133 39.4982 7.26133 39.9275 7.672C40.3755 8.064 40.9542 8.36267 41.6635 8.568C41.7382 8.58667 42.0275 8.67067 42.5315 8.82C43.0542 8.95067 43.6328 9.1 44.2675 9.268C44.9022 9.436 45.5182 9.604 46.1155 9.772C46.7315 9.92133 47.1702 10.0333 47.4315 10.108C48.0848 10.3133 48.6542 10.5933 49.1395 10.948C49.6248 11.3027 50.0262 11.7133 50.3435 12.18C50.6795 12.628 50.9222 13.1133 51.0715 13.636C51.2395 14.1587 51.3235 14.6813 51.3235 15.204C51.3235 16.324 51.0902 17.2853 50.6235 18.088C50.1755 18.872 49.5782 19.516 48.8315 20.02C48.0848 20.524 47.2355 20.888 46.2835 21.112C45.3315 21.3547 44.3608 21.476 43.3715 21.476C42.2328 21.476 41.1595 21.336 40.1515 21.056C39.1435 20.776 38.2662 20.3467 37.5195 19.768C36.7728 19.1893 36.1755 18.452 35.7275 17.556C35.2795 16.6413 35.0462 15.568 35.0275 14.336H38.5275ZM53.9398 1.008H57.1318V8.428H57.1878C57.5798 7.77467 58.1584 7.23333 58.9238 6.804C59.7078 6.356 60.5758 6.132 61.5278 6.132C63.1144 6.132 64.3651 6.54267 65.2798 7.364C66.1944 8.18533 66.6518 9.41733 66.6518 11.06V21H63.4598V11.9C63.4224 10.7613 63.1798 9.94 62.7318 9.436C62.2838 8.91333 61.5838 8.652 60.6318 8.652C60.0904 8.652 59.6051 8.75467 59.1758 8.96C58.7464 9.14667 58.3824 9.41733 58.0838 9.772C57.7851 10.108 57.5518 10.5093 57.3838 10.976C57.2158 11.4427 57.1318 11.9373 57.1318 12.46V21H53.9398V1.008ZM76.6539 21.392C75.4966 21.392 74.4606 21.2053 73.5459 20.832C72.6499 20.44 71.8846 19.908 71.2499 19.236C70.6339 18.564 70.1579 17.7613 69.8219 16.828C69.5046 15.8947 69.3459 14.868 69.3459 13.748C69.3459 12.6467 69.5046 11.6293 69.8219 10.696C70.1579 9.76267 70.6339 8.96 71.2499 8.288C71.8846 7.616 72.6499 7.09333 73.5459 6.72C74.4606 6.328 75.4966 6.132 76.6539 6.132C77.8112 6.132 78.8379 6.328 79.7339 6.72C80.6486 7.09333 81.4139 7.616 82.0299 8.288C82.6646 8.96 83.1406 9.76267 83.4579 10.696C83.7939 11.6293 83.9619 12.6467 83.9619 13.748C83.9619 14.868 83.7939 15.8947 83.4579 16.828C83.1406 17.7613 82.6646 18.564 82.0299 19.236C81.4139 19.908 80.6486 20.44 79.7339 20.832C78.8379 21.2053 77.8112 21.392 76.6539 21.392ZM76.6539 18.872C77.3632 18.872 77.9792 18.7227 78.5019 18.424C79.0246 18.1253 79.4539 17.7333 79.7899 17.248C80.1259 16.7627 80.3686 16.2213 80.5179 15.624C80.6859 15.008 80.7699 14.3827 80.7699 13.748C80.7699 13.132 80.6859 12.516 80.5179 11.9C80.3686 11.284 80.1259 10.7427 79.7899 10.276C79.4539 9.79067 79.0246 9.39867 78.5019 9.1C77.9792 8.80133 77.3632 8.652 76.6539 8.652C75.9446 8.652 75.3286 8.80133 74.8059 9.1C74.2832 9.39867 73.8539 9.79067 73.5179 10.276C73.1819 10.7427 72.9299 11.284 72.7619 11.9C72.6126 12.516 72.5379 13.132 72.5379 13.748C72.5379 14.3827 72.6126 15.008 72.7619 15.624C72.9299 16.2213 73.1819 16.7627 73.5179 17.248C73.8539 17.7333 74.2832 18.1253 74.8059 18.424C75.3286 18.7227 75.9446 18.872 76.6539 18.872ZM86.6995 6.524H89.7235V8.484H89.7795C90.2275 7.644 90.8529 7.04667 91.6555 6.692C92.4582 6.31867 93.3262 6.132 94.2595 6.132C95.3982 6.132 96.3875 6.33733 97.2275 6.748C98.0862 7.14 98.7955 7.69067 99.3555 8.4C99.9155 9.09067 100.336 9.90267 100.616 10.836C100.896 11.7693 101.036 12.768 101.036 13.832C101.036 14.8027 100.905 15.7453 100.644 16.66C100.401 17.5747 100.018 18.3867 99.4955 19.096C98.9915 19.7867 98.3475 20.3467 97.5635 20.776C96.7795 21.1867 95.8555 21.392 94.7915 21.392C94.3249 21.392 93.8582 21.3453 93.3915 21.252C92.9249 21.1773 92.4769 21.0467 92.0475 20.86C91.6182 20.6733 91.2169 20.44 90.8435 20.16C90.4889 19.8613 90.1902 19.516 89.9475 19.124H89.8915V26.348H86.6995V6.524ZM97.8435 13.776C97.8435 13.1227 97.7595 12.488 97.5915 11.872C97.4235 11.256 97.1715 10.7147 96.8355 10.248C96.4995 9.76267 96.0795 9.38 95.5755 9.1C95.0715 8.80133 94.4929 8.652 93.8395 8.652C92.4955 8.652 91.4782 9.11867 90.7875 10.052C90.1155 10.9853 89.7795 12.2267 89.7795 13.776C89.7795 14.504 89.8635 15.1853 90.0315 15.82C90.2182 16.436 90.4889 16.968 90.8435 17.416C91.1982 17.864 91.6182 18.2187 92.1035 18.48C92.6075 18.7413 93.1862 18.872 93.8395 18.872C94.5675 18.872 95.1835 18.7227 95.6875 18.424C96.1915 18.1253 96.6022 17.7427 96.9195 17.276C97.2555 16.7907 97.4889 16.2493 97.6195 15.652C97.7689 15.036 97.8435 14.4107 97.8435 13.776Z" fill="black"/>
<path d="M4.07527 1.008V0.00799847H3.07527V1.008H4.07527ZM7.57527 1.008H8.57527V0.00799847H7.57527V1.008ZM7.57527 17.976H6.57527V18.976H7.57527V17.976ZM17.7393 17.976H18.7393V16.976H17.7393V17.976ZM17.7393 21V22H18.7393V21H17.7393ZM4.07527 21H3.07527V22H4.07527V21ZM4.07527 2.008H7.57527V0.00799847H4.07527V2.008ZM6.57527 1.008V17.976H8.57527V1.008H6.57527ZM7.57527 18.976H17.7393V16.976H7.57527V18.976ZM16.7393 17.976V21H18.7393V17.976H16.7393ZM17.7393 20H4.07527V22H17.7393V20ZM5.07527 21V1.008H3.07527V21H5.07527ZM19.7894 1.008V0.00799847H18.7894V1.008H19.7894ZM22.9814 1.008H23.9814V0.00799847H22.9814V1.008ZM22.9814 4.032V5.032H23.9814V4.032H22.9814ZM19.7894 4.032H18.7894V5.032H19.7894V4.032ZM19.7894 6.524V5.524H18.7894V6.524H19.7894ZM22.9814 6.524H23.9814V5.524H22.9814V6.524ZM22.9814 21V22H23.9814V21H22.9814ZM19.7894 21H18.7894V22H19.7894V21ZM19.7894 2.008H22.9814V0.00799847H19.7894V2.008ZM21.9814 1.008V4.032H23.9814V1.008H21.9814ZM22.9814 3.032H19.7894V5.032H22.9814V3.032ZM20.7894 4.032V1.008H18.7894V4.032H20.7894ZM19.7894 7.524H22.9814V5.524H19.7894V7.524ZM21.9814 6.524V21H23.9814V6.524H21.9814ZM22.9814 20H19.7894V22H22.9814V20ZM20.7894 21V6.524H18.7894V21H20.7894ZM25.0033 6.524V5.524H24.0033V6.524H25.0033ZM27.4113 6.524V7.524H28.4113V6.524H27.4113ZM27.4113 2.184V1.184H26.4113V2.184H27.4113ZM30.6033 2.184H31.6033V1.184H30.6033V2.184ZM30.6033 6.524H29.6033V7.524H30.6033V6.524ZM33.4873 6.524H34.4873V5.524H33.4873V6.524ZM33.4873 8.904V9.904H34.4873V8.904H33.4873ZM30.6033 8.904V7.904H29.6033V8.904H30.6033ZM30.6313 17.5L29.6342 17.5767L29.6372 17.6145L29.6429 17.6521L30.6313 17.5ZM30.8273 18.116L29.9531 18.6016L29.9728 18.637L29.9952 18.6707L30.8273 18.116ZM31.3033 18.508L30.8895 19.4184L30.9249 19.4345L30.9616 19.4478L31.3033 18.508ZM32.8153 18.62V19.62H32.8569L32.8983 19.6165L32.8153 18.62ZM33.4873 18.508H34.4873V17.2272L33.2448 17.5379L33.4873 18.508ZM33.4873 20.972L33.592 21.9665L34.4873 21.8723V20.972H33.4873ZM32.4513 21.084L32.3409 20.0901L32.4513 21.084ZM29.3713 20.916L29.0551 21.8647L29.0757 21.8716L29.0966 21.8775L29.3713 20.916ZM28.1673 20.216L27.4175 20.8776L27.4381 20.901L27.4602 20.9231L28.1673 20.216ZM27.5793 19.04L26.5987 19.2361L26.6025 19.2548L26.6069 19.2734L27.5793 19.04ZM27.4113 17.444H26.4113V17.4596L26.4118 17.4752L27.4113 17.444ZM27.4113 8.904H28.4113V7.904H27.4113V8.904ZM25.0033 8.904H24.0033V9.904H25.0033V8.904ZM25.0033 7.524H27.4113V5.524H25.0033V7.524ZM28.4113 6.524V2.184H26.4113V6.524H28.4113ZM27.4113 3.184H30.6033V1.184H27.4113V3.184ZM29.6033 2.184V6.524H31.6033V2.184H29.6033ZM30.6033 7.524H33.4873V5.524H30.6033V7.524ZM32.4873 6.524V8.904H34.4873V6.524H32.4873ZM33.4873 7.904H30.6033V9.904H33.4873V7.904ZM29.6033 8.904V16.632H31.6033V8.904H29.6033ZM29.6033 16.632C29.6033 16.9847 29.613 17.301 29.6342 17.5767L31.6284 17.4233C31.6122 17.2137 31.6033 16.9513 31.6033 16.632H29.6033ZM29.6429 17.6521C29.6935 17.9808 29.7888 18.3058 29.9531 18.6016L31.7015 17.6304C31.6791 17.5902 31.6438 17.5045 31.6197 17.3479L29.6429 17.6521ZM29.9952 18.6707C30.2226 19.0117 30.5348 19.2571 30.8895 19.4184L31.7171 17.5976C31.6865 17.5837 31.6715 17.5726 31.666 17.5681C31.661 17.564 31.6599 17.5622 31.6593 17.5613L29.9952 18.6707ZM30.9616 19.4478C31.3233 19.5793 31.7354 19.62 32.1433 19.62V17.62C31.8418 17.62 31.6939 17.586 31.645 17.5682L30.9616 19.4478ZM32.1433 19.62C32.1437 19.62 32.1442 19.62 32.1446 19.62C32.145 19.62 32.1455 19.62 32.1459 19.62C32.1464 19.62 32.1468 19.62 32.1472 19.62C32.1477 19.62 32.1481 19.62 32.1485 19.62C32.149 19.62 32.1494 19.62 32.1499 19.62C32.1503 19.62 32.1507 19.62 32.1512 19.62C32.1516 19.62 32.152 19.62 32.1525 19.62C32.1529 19.62 32.1534 19.62 32.1538 19.62C32.1542 19.62 32.1547 19.62 32.1551 19.62C32.1555 19.62 32.156 19.62 32.1564 19.62C32.1569 19.62 32.1573 19.62 32.1577 19.62C32.1582 19.62 32.1586 19.62 32.159 19.62C32.1595 19.62 32.1599 19.62 32.1604 19.62C32.1608 19.62 32.1612 19.62 32.1617 19.62C32.1621 19.62 32.1625 19.62 32.163 19.62C32.1634 19.62 32.1639 19.62 32.1643 19.62C32.1647 19.62 32.1652 19.62 32.1656 19.62C32.166 19.62 32.1665 19.62 32.1669 19.62C32.1674 19.62 32.1678 19.62 32.1682 19.62C32.1687 19.62 32.1691 19.62 32.1695 19.62C32.17 19.62 32.1704 19.62 32.1709 19.62C32.1713 19.62 32.1717 19.62 32.1722 19.62C32.1726 19.62 32.173 19.62 32.1735 19.62C32.1739 19.62 32.1744 19.62 32.1748 19.62C32.1752 19.62 32.1757 19.62 32.1761 19.62C32.1765 19.62 32.177 19.62 32.1774 19.62C32.1779 19.62 32.1783 19.62 32.1787 19.62C32.1792 19.62 32.1796 19.62 32.18 19.62C32.1805 19.62 32.1809 19.62 32.1814 19.62C32.1818 19.62 32.1822 19.62 32.1827 19.62C32.1831 19.62 32.1835 19.62 32.184 19.62C32.1844 19.62 32.1849 19.62 32.1853 19.62C32.1857 19.62 32.1862 19.62 32.1866 19.62C32.187 19.62 32.1875 19.62 32.1879 19.62C32.1884 19.62 32.1888 19.62 32.1892 19.62C32.1897 19.62 32.1901 19.62 32.1905 19.62C32.191 19.62 32.1914 19.62 32.1919 19.62C32.1923 19.62 32.1927 19.62 32.1932 19.62C32.1936 19.62 32.194 19.62 32.1945 19.62C32.1949 19.62 32.1954 19.62 32.1958 19.62C32.1962 19.62 32.1967 19.62 32.1971 19.62C32.1975 19.62 32.198 19.62 32.1984 19.62C32.1989 19.62 32.1993 19.62 32.1997 19.62C32.2002 19.62 32.2006 19.62 32.201 19.62C32.2015 19.62 32.2019 19.62 32.2024 19.62C32.2028 19.62 32.2032 19.62 32.2037 19.62C32.2041 19.62 32.2045 19.62 32.205 19.62C32.2054 19.62 32.2059 19.62 32.2063 19.62C32.2067 19.62 32.2072 19.62 32.2076 19.62C32.208 19.62 32.2085 19.62 32.2089 19.62C32.2094 19.62 32.2098 19.62 32.2102 19.62C32.2107 19.62 32.2111 19.62 32.2115 19.62C32.212 19.62 32.2124 19.62 32.2129 19.62C32.2133 19.62 32.2137 19.62 32.2142 19.62C32.2146 19.62 32.215 19.62 32.2155 19.62C32.2159 19.62 32.2164 19.62 32.2168 19.62C32.2172 19.62 32.2177 19.62 32.2181 19.62C32.2185 19.62 32.219 19.62 32.2194 19.62C32.2199 19.62 32.2203 19.62 32.2207 19.62C32.2212 19.62 32.2216 19.62 32.222 19.62C32.2225 19.62 32.2229 19.62 32.2234 19.62C32.2238 19.62 32.2242 19.62 32.2247 19.62C32.2251 19.62 32.2255 19.62 32.226 19.62C32.2264 19.62 32.2269 19.62 32.2273 19.62C32.2277 19.62 32.2282 19.62 32.2286 19.62C32.229 19.62 32.2295 19.62 32.2299 19.62C32.2304 19.62 32.2308 19.62 32.2312 19.62C32.2317 19.62 32.2321 19.62 32.2325 19.62C32.233 19.62 32.2334 19.62 32.2339 19.62C32.2343 19.62 32.2347 19.62 32.2352 19.62C32.2356 19.62 32.236 19.62 32.2365 19.62C32.2369 19.62 32.2374 19.62 32.2378 19.62C32.2382 19.62 32.2387 19.62 32.2391 19.62C32.2395 19.62 32.24 19.62 32.2404 19.62C32.2409 19.62 32.2413 19.62 32.2417 19.62C32.2422 19.62 32.2426 19.62 32.243 19.62C32.2435 19.62 32.2439 19.62 32.2444 19.62C32.2448 19.62 32.2452 19.62 32.2457 19.62C32.2461 19.62 32.2465 19.62 32.247 19.62C32.2474 19.62 32.2479 19.62 32.2483 19.62C32.2487 19.62 32.2492 19.62 32.2496 19.62C32.25 19.62 32.2505 19.62 32.2509 19.62C32.2514 19.62 32.2518 19.62 32.2522 19.62C32.2527 19.62 32.2531 19.62 32.2535 19.62C32.254 19.62 32.2544 19.62 32.2549 19.62C32.2553 19.62 32.2557 19.62 32.2562 19.62C32.2566 19.62 32.257 19.62 32.2575 19.62C32.2579 19.62 32.2584 19.62 32.2588 19.62C32.2592 19.62 32.2597 19.62 32.2601 19.62C32.2605 19.62 32.261 19.62 32.2614 19.62C32.2619 19.62 32.2623 19.62 32.2627 19.62C32.2632 19.62 32.2636 19.62 32.264 19.62C32.2645 19.62 32.2649 19.62 32.2654 19.62C32.2658 19.62 32.2662 19.62 32.2667 19.62C32.2671 19.62 32.2675 19.62 32.268 19.62C32.2684 19.62 32.2689 19.62 32.2693 19.62C32.2697 19.62 32.2702 19.62 32.2706 19.62C32.271 19.62 32.2715 19.62 32.2719 19.62C32.2724 19.62 32.2728 19.62 32.2732 19.62C32.2737 19.62 32.2741 19.62 32.2745 19.62C32.275 19.62 32.2754 19.62 32.2759 19.62C32.2763 19.62 32.2767 19.62 32.2772 19.62C32.2776 19.62 32.278 19.62 32.2785 19.62C32.2789 19.62 32.2794 19.62 32.2798 19.62C32.2802 19.62 32.2807 19.62 32.2811 19.62C32.2815 19.62 32.282 19.62 32.2824 19.62C32.2829 19.62 32.2833 19.62 32.2837 19.62C32.2842 19.62 32.2846 19.62 32.285 19.62C32.2855 19.62 32.2859 19.62 32.2864 19.62C32.2868 19.62 32.2872 19.62 32.2877 19.62C32.2881 19.62 32.2885 19.62 32.289 19.62C32.2894 19.62 32.2899 19.62 32.2903 19.62C32.2907 19.62 32.2912 19.62 32.2916 19.62C32.292 19.62 32.2925 19.62 32.2929 19.62C32.2934 19.62 32.2938 19.62 32.2942 19.62C32.2947 19.62 32.2951 19.62 32.2955 19.62C32.296 19.62 32.2964 19.62 32.2969 19.62C32.2973 19.62 32.2977 19.62 32.2982 19.62C32.2986 19.62 32.299 19.62 32.2995 19.62C32.2999 19.62 32.3004 19.62 32.3008 19.62C32.3012 19.62 32.3017 19.62 32.3021 19.62C32.3025 19.62 32.303 19.62 32.3034 19.62C32.3039 19.62 32.3043 19.62 32.3047 19.62C32.3052 19.62 32.3056 19.62 32.306 19.62C32.3065 19.62 32.3069 19.62 32.3074 19.62C32.3078 19.62 32.3082 19.62 32.3087 19.62C32.3091 19.62 32.3095 19.62 32.31 19.62C32.3104 19.62 32.3109 19.62 32.3113 19.62C32.3117 19.62 32.3122 19.62 32.3126 19.62C32.313 19.62 32.3135 19.62 32.3139 19.62C32.3144 19.62 32.3148 19.62 32.3152 19.62C32.3157 19.62 32.3161 19.62 32.3165 19.62C32.317 19.62 32.3174 19.62 32.3179 19.62C32.3183 19.62 32.3187 19.62 32.3192 19.62C32.3196 19.62 32.32 19.62 32.3205 19.62C32.3209 19.62 32.3214 19.62 32.3218 19.62C32.3222 19.62 32.3227 19.62 32.3231 19.62C32.3235 19.62 32.324 19.62 32.3244 19.62C32.3249 19.62 32.3253 19.62 32.3257 19.62C32.3262 19.62 32.3266 19.62 32.327 19.62C32.3275 19.62 32.3279 19.62 32.3284 19.62C32.3288 19.62 32.3292 19.62 32.3297 19.62C32.3301 19.62 32.3305 19.62 32.331 19.62C32.3314 19.62 32.3319 19.62 32.3323 19.62C32.3327 19.62 32.3332 19.62 32.3336 19.62C32.334 19.62 32.3345 19.62 32.3349 19.62C32.3354 19.62 32.3358 19.62 32.3362 19.62C32.3367 19.62 32.3371 19.62 32.3375 19.62C32.338 19.62 32.3384 19.62 32.3389 19.62C32.3393 19.62 32.3397 19.62 32.3402 19.62C32.3406 19.62 32.341 19.62 32.3415 19.62C32.3419 19.62 32.3424 19.62 32.3428 19.62C32.3432 19.62 32.3437 19.62 32.3441 19.62C32.3445 19.62 32.345 19.62 32.3454 19.62C32.3459 19.62 32.3463 19.62 32.3467 19.62C32.3472 19.62 32.3476 19.62 32.348 19.62C32.3485 19.62 32.3489 19.62 32.3494 19.62C32.3498 19.62 32.3502 19.62 32.3507 19.62C32.3511 19.62 32.3515 19.62 32.352 19.62C32.3524 19.62 32.3529 19.62 32.3533 19.62C32.3537 19.62 32.3542 19.62 32.3546 19.62C32.355 19.62 32.3555 19.62 32.3559 19.62C32.3564 19.62 32.3568 19.62 32.3572 19.62C32.3577 19.62 32.3581 19.62 32.3585 19.62C32.359 19.62 32.3594 19.62 32.3599 19.62C32.3603 19.62 32.3607 19.62 32.3612 19.62C32.3616 19.62 32.362 19.62 32.3625 19.62C32.3629 19.62 32.3634 19.62 32.3638 19.62C32.3642 19.62 32.3647 19.62 32.3651 19.62C32.3655 19.62 32.366 19.62 32.3664 19.62C32.3669 19.62 32.3673 19.62 32.3677 19.62C32.3682 19.62 32.3686 19.62 32.369 19.62C32.3695 19.62 32.3699 19.62 32.3704 19.62C32.3708 19.62 32.3712 19.62 32.3717 19.62C32.3721 19.62 32.3725 19.62 32.373 19.62C32.3734 19.62 32.3739 19.62 32.3743 19.62C32.3747 19.62 32.3752 19.62 32.3756 19.62C32.376 19.62 32.3765 19.62 32.3769 19.62C32.3774 19.62 32.3778 19.62 32.3782 19.62C32.3787 19.62 32.3791 19.62 32.3795 19.62C32.38 19.62 32.3804 19.62 32.3809 19.62C32.3813 19.62 32.3817 19.62 32.3822 19.62C32.3826 19.62 32.383 19.62 32.3835 19.62C32.3839 19.62 32.3844 19.62 32.3848 19.62C32.3852 19.62 32.3857 19.62 32.3861 19.62C32.3865 19.62 32.387 19.62 32.3874 19.62C32.3879 19.62 32.3883 19.62 32.3887 19.62C32.3892 19.62 32.3896 19.62 32.39 19.62C32.3905 19.62 32.3909 19.62 32.3914 19.62C32.3918 19.62 32.3922 19.62 32.3927 19.62C32.3931 19.62 32.3935 19.62 32.394 19.62C32.3944 19.62 32.3949 19.62 32.3953 19.62C32.3957 19.62 32.3962 19.62 32.3966 19.62C32.397 19.62 32.3975 19.62 32.3979 19.62C32.3984 19.62 32.3988 19.62 32.3992 19.62C32.3997 19.62 32.4001 19.62 32.4005 19.62C32.401 19.62 32.4014 19.62 32.4019 19.62C32.4023 19.62 32.4027 19.62 32.4032 19.62C32.4036 19.62 32.404 19.62 32.4045 19.62C32.4049 19.62 32.4054 19.62 32.4058 19.62C32.4062 19.62 32.4067 19.62 32.4071 19.62C32.4075 19.62 32.408 19.62 32.4084 19.62C32.4089 19.62 32.4093 19.62 32.4097 19.62C32.4102 19.62 32.4106 19.62 32.411 19.62C32.4115 19.62 32.4119 19.62 32.4124 19.62C32.4128 19.62 32.4132 19.62 32.4137 19.62C32.4141 19.62 32.4145 19.62 32.415 19.62C32.4154 19.62 32.4159 19.62 32.4163 19.62C32.4167 19.62 32.4172 19.62 32.4176 19.62C32.418 19.62 32.4185 19.62 32.4189 19.62C32.4194 19.62 32.4198 19.62 32.4202 19.62C32.4207 19.62 32.4211 19.62 32.4215 19.62C32.422 19.62 32.4224 19.62 32.4229 19.62C32.4233 19.62 32.4237 19.62 32.4242 19.62C32.4246 19.62 32.425 19.62 32.4255 19.62C32.4259 19.62 32.4264 19.62 32.4268 19.62C32.4272 19.62 32.4277 19.62 32.4281 19.62C32.4285 19.62 32.429 19.62 32.4294 19.62C32.4299 19.62 32.4303 19.62 32.4307 19.62C32.4312 19.62 32.4316 19.62 32.432 19.62C32.4325 19.62 32.4329 19.62 32.4334 19.62C32.4338 19.62 32.4342 19.62 32.4347 19.62C32.4351 19.62 32.4355 19.62 32.436 19.62C32.4364 19.62 32.4369 19.62 32.4373 19.62C32.4377 19.62 32.4382 19.62 32.4386 19.62C32.439 19.62 32.4395 19.62 32.4399 19.62C32.4404 19.62 32.4408 19.62 32.4412 19.62C32.4417 19.62 32.4421 19.62 32.4425 19.62C32.443 19.62 32.4434 19.62 32.4439 19.62C32.4443 19.62 32.4447 19.62 32.4452 19.62C32.4456 19.62 32.446 19.62 32.4465 19.62C32.4469 19.62 32.4474 19.62 32.4478 19.62C32.4482 19.62 32.4487 19.62 32.4491 19.62C32.4495 19.62 32.45 19.62 32.4504 19.62C32.4509 19.62 32.4513 19.62 32.4517 19.62C32.4522 19.62 32.4526 19.62 32.453 19.62C32.4535 19.62 32.4539 19.62 32.4544 19.62C32.4548 19.62 32.4552 19.62 32.4557 19.62C32.4561 19.62 32.4565 19.62 32.457 19.62C32.4574 19.62 32.4579 19.62 32.4583 19.62C32.4587 19.62 32.4592 19.62 32.4596 19.62C32.46 19.62 32.4605 19.62 32.4609 19.62C32.4614 19.62 32.4618 19.62 32.4622 19.62C32.4627 19.62 32.4631 19.62 32.4635 19.62C32.464 19.62 32.4644 19.62 32.4649 19.62C32.4653 19.62 32.4657 19.62 32.4662 19.62C32.4666 19.62 32.467 19.62 32.4675 19.62C32.4679 19.62 32.4684 19.62 32.4688 19.62C32.4692 19.62 32.4697 19.62 32.4701 19.62C32.4705 19.62 32.471 19.62 32.4714 19.62C32.4719 19.62 32.4723 19.62 32.4727 19.62C32.4732 19.62 32.4736 19.62 32.474 19.62C32.4745 19.62 32.4749 19.62 32.4754 19.62C32.4758 19.62 32.4762 19.62 32.4767 19.62C32.4771 19.62 32.4775 19.62 32.478 19.62C32.4784 19.62 32.4789 19.62 32.4793 19.62C32.4797 19.62 32.4802 19.62 32.4806 19.62C32.481 19.62 32.4815 19.62 32.4819 19.62C32.4824 19.62 32.4828 19.62 32.4832 19.62C32.4837 19.62 32.4841 19.62 32.4845 19.62C32.485 19.62 32.4854 19.62 32.4859 19.62C32.4863 19.62 32.4867 19.62 32.4872 19.62C32.4876 19.62 32.488 19.62 32.4885 19.62C32.4889 19.62 32.4894 19.62 32.4898 19.62C32.4902 19.62 32.4907 19.62 32.4911 19.62C32.4915 19.62 32.492 19.62 32.4924 19.62C32.4929 19.62 32.4933 19.62 32.4937 19.62C32.4942 19.62 32.4946 19.62 32.495 19.62C32.4955 19.62 32.4959 19.62 32.4964 19.62C32.4968 19.62 32.4972 19.62 32.4977 19.62C32.4981 19.62 32.4985 19.62 32.499 19.62C32.4994 19.62 32.4999 19.62 32.5003 19.62C32.5007 19.62 32.5012 19.62 32.5016 19.62C32.502 19.62 32.5025 19.62 32.5029 19.62C32.5034 19.62 32.5038 19.62 32.5042 19.62C32.5047 19.62 32.5051 19.62 32.5055 19.62C32.506 19.62 32.5064 19.62 32.5069 19.62C32.5073 19.62 32.5077 19.62 32.5082 19.62C32.5086 19.62 32.509 19.62 32.5095 19.62C32.5099 19.62 32.5104 19.62 32.5108 19.62C32.5112 19.62 32.5117 19.62 32.5121 19.62C32.5125 19.62 32.513 19.62 32.5134 19.62C32.5139 19.62 32.5143 19.62 32.5147 19.62C32.5152 19.62 32.5156 19.62 32.516 19.62C32.5165 19.62 32.5169 19.62 32.5174 19.62C32.5178 19.62 32.5182 19.62 32.5187 19.62C32.5191 19.62 32.5195 19.62 32.52 19.62C32.5204 19.62 32.5209 19.62 32.5213 19.62C32.5217 19.62 32.5222 19.62 32.5226 19.62C32.523 19.62 32.5235 19.62 32.5239 19.62C32.5244 19.62 32.5248 19.62 32.5252 19.62C32.5257 19.62 32.5261 19.62 32.5265 19.62C32.527 19.62 32.5274 19.62 32.5279 19.62C32.5283 19.62 32.5287 19.62 32.5292 19.62C32.5296 19.62 32.53 19.62 32.5305 19.62C32.5309 19.62 32.5314 19.62 32.5318 19.62C32.5322 19.62 32.5327 19.62 32.5331 19.62C32.5335 19.62 32.534 19.62 32.5344 19.62C32.5349 19.62 32.5353 19.62 32.5357 19.62C32.5362 19.62 32.5366 19.62 32.537 19.62C32.5375 19.62 32.5379 19.62 32.5384 19.62C32.5388 19.62 32.5392 19.62 32.5397 19.62C32.5401 19.62 32.5405 19.62 32.541 19.62C32.5414 19.62 32.5419 19.62 32.5423 19.62C32.5427 19.62 32.5432 19.62 32.5436 19.62C32.544 19.62 32.5445 19.62 32.5449 19.62C32.5454 19.62 32.5458 19.62 32.5462 19.62C32.5467 19.62 32.5471 19.62 32.5475 19.62C32.548 19.62 32.5484 19.62 32.5489 19.62C32.5493 19.62 32.5497 19.62 32.5502 19.62C32.5506 19.62 32.551 19.62 32.5515 19.62C32.5519 19.62 32.5524 19.62 32.5528 19.62C32.5532 19.62 32.5537 19.62 32.5541 19.62C32.5545 19.62 32.555 19.62 32.5554 19.62C32.5559 19.62 32.5563 19.62 32.5567 19.62C32.5572 19.62 32.5576 19.62 32.558 19.62C32.5585 19.62 32.5589 19.62 32.5594 19.62C32.5598 19.62 32.5602 19.62 32.5607 19.62C32.5611 19.62 32.5615 19.62 32.562 19.62C32.5624 19.62 32.5629 19.62 32.5633 19.62C32.5637 19.62 32.5642 19.62 32.5646 19.62C32.565 19.62 32.5655 19.62 32.5659 19.62C32.5664 19.62 32.5668 19.62 32.5672 19.62C32.5677 19.62 32.5681 19.62 32.5685 19.62C32.569 19.62 32.5694 19.62 32.5699 19.62C32.5703 19.62 32.5707 19.62 32.5712 19.62C32.5716 19.62 32.572 19.62 32.5725 19.62C32.5729 19.62 32.5734 19.62 32.5738 19.62C32.5742 19.62 32.5747 19.62 32.5751 19.62C32.5755 19.62 32.576 19.62 32.5764 19.62C32.5769 19.62 32.5773 19.62 32.5777 19.62C32.5782 19.62 32.5786 19.62 32.579 19.62C32.5795 19.62 32.5799 19.62 32.5804 19.62C32.5808 19.62 32.5812 19.62 32.5817 19.62C32.5821 19.62 32.5825 19.62 32.583 19.62C32.5834 19.62 32.5839 19.62 32.5843 19.62C32.5847 19.62 32.5852 19.62 32.5856 19.62C32.586 19.62 32.5865 19.62 32.5869 19.62C32.5874 19.62 32.5878 19.62 32.5882 19.62C32.5887 19.62 32.5891 19.62 32.5895 19.62C32.59 19.62 32.5904 19.62 32.5909 19.62C32.5913 19.62 32.5917 19.62 32.5922 19.62C32.5926 19.62 32.593 19.62 32.5935 19.62C32.5939 19.62 32.5944 19.62 32.5948 19.62C32.5952 19.62 32.5957 19.62 32.5961 19.62C32.5965 19.62 32.597 19.62 32.5974 19.62C32.5979 19.62 32.5983 19.62 32.5987 19.62C32.5992 19.62 32.5996 19.62 32.6 19.62C32.6005 19.62 32.6009 19.62 32.6014 19.62C32.6018 19.62 32.6022 19.62 32.6027 19.62C32.6031 19.62 32.6035 19.62 32.604 19.62C32.6044 19.62 32.6049 19.62 32.6053 19.62C32.6057 19.62 32.6062 19.62 32.6066 19.62C32.607 19.62 32.6075 19.62 32.6079 19.62C32.6084 19.62 32.6088 19.62 32.6092 19.62C32.6097 19.62 32.6101 19.62 32.6105 19.62C32.611 19.62 32.6114 19.62 32.6119 19.62C32.6123 19.62 32.6127 19.62 32.6132 19.62C32.6136 19.62 32.614 19.62 32.6145 19.62C32.6149 19.62 32.6154 19.62 32.6158 19.62C32.6162 19.62 32.6167 19.62 32.6171 19.62C32.6175 19.62 32.618 19.62 32.6184 19.62C32.6189 19.62 32.6193 19.62 32.6197 19.62C32.6202 19.62 32.6206 19.62 32.621 19.62C32.6215 19.62 32.6219 19.62 32.6224 19.62C32.6228 19.62 32.6232 19.62 32.6237 19.62C32.6241 19.62 32.6245 19.62 32.625 19.62C32.6254 19.62 32.6259 19.62 32.6263 19.62C32.6267 19.62 32.6272 19.62 32.6276 19.62C32.628 19.62 32.6285 19.62 32.6289 19.62C32.6294 19.62 32.6298 19.62 32.6302 19.62C32.6307 19.62 32.6311 19.62 32.6315 19.62C32.632 19.62 32.6324 19.62 32.6329 19.62C32.6333 19.62 32.6337 19.62 32.6342 19.62C32.6346 19.62 32.635 19.62 32.6355 19.62C32.6359 19.62 32.6364 19.62 32.6368 19.62C32.6372 19.62 32.6377 19.62 32.6381 19.62C32.6385 19.62 32.639 19.62 32.6394 19.62C32.6399 19.62 32.6403 19.62 32.6407 19.62C32.6412 19.62 32.6416 19.62 32.642 19.62C32.6425 19.62 32.6429 19.62 32.6434 19.62C32.6438 19.62 32.6442 19.62 32.6447 19.62C32.6451 19.62 32.6455 19.62 32.646 19.62C32.6464 19.62 32.6469 19.62 32.6473 19.62C32.6477 19.62 32.6482 19.62 32.6486 19.62C32.649 19.62 32.6495 19.62 32.6499 19.62C32.6504 19.62 32.6508 19.62 32.6512 19.62C32.6517 19.62 32.6521 19.62 32.6525 19.62C32.653 19.62 32.6534 19.62 32.6539 19.62C32.6543 19.62 32.6547 19.62 32.6552 19.62C32.6556 19.62 32.656 19.62 32.6565 19.62C32.6569 19.62 32.6574 19.62 32.6578 19.62C32.6582 19.62 32.6587 19.62 32.6591 19.62C32.6595 19.62 32.66 19.62 32.6604 19.62C32.6609 19.62 32.6613 19.62 32.6617 19.62C32.6622 19.62 32.6626 19.62 32.663 19.62C32.6635 19.62 32.6639 19.62 32.6644 19.62C32.6648 19.62 32.6652 19.62 32.6657 19.62C32.6661 19.62 32.6665 19.62 32.667 19.62C32.6674 19.62 32.6679 19.62 32.6683 19.62C32.6687 19.62 32.6692 19.62 32.6696 19.62C32.67 19.62 32.6705 19.62 32.6709 19.62C32.6714 19.62 32.6718 19.62 32.6722 19.62C32.6727 19.62 32.6731 19.62 32.6735 19.62C32.674 19.62 32.6744 19.62 32.6749 19.62C32.6753 19.62 32.6757 19.62 32.6762 19.62C32.6766 19.62 32.677 19.62 32.6775 19.62C32.6779 19.62 32.6784 19.62 32.6788 19.62C32.6792 19.62 32.6797 19.62 32.6801 19.62C32.6805 19.62 32.681 19.62 32.6814 19.62C32.6819 19.62 32.6823 19.62 32.6827 19.62C32.6832 19.62 32.6836 19.62 32.684 19.62C32.6845 19.62 32.6849 19.62 32.6854 19.62C32.6858 19.62 32.6862 19.62 32.6867 19.62C32.6871 19.62 32.6875 19.62 32.688 19.62C32.6884 19.62 32.6889 19.62 32.6893 19.62C32.6897 19.62 32.6902 19.62 32.6906 19.62C32.691 19.62 32.6915 19.62 32.6919 19.62C32.6924 19.62 32.6928 19.62 32.6932 19.62C32.6937 19.62 32.6941 19.62 32.6945 19.62C32.695 19.62 32.6954 19.62 32.6959 19.62C32.6963 19.62 32.6967 19.62 32.6972 19.62C32.6976 19.62 32.698 19.62 32.6985 19.62C32.6989 19.62 32.6994 19.62 32.6998 19.62C32.7002 19.62 32.7007 19.62 32.7011 19.62C32.7015 19.62 32.702 19.62 32.7024 19.62C32.7029 19.62 32.7033 19.62 32.7037 19.62C32.7042 19.62 32.7046 19.62 32.705 19.62C32.7055 19.62 32.7059 19.62 32.7064 19.62C32.7068 19.62 32.7072 19.62 32.7077 19.62C32.7081 19.62 32.7085 19.62 32.709 19.62C32.7094 19.62 32.7099 19.62 32.7103 19.62C32.7107 19.62 32.7112 19.62 32.7116 19.62C32.712 19.62 32.7125 19.62 32.7129 19.62C32.7134 19.62 32.7138 19.62 32.7142 19.62C32.7147 19.62 32.7151 19.62 32.7155 19.62C32.716 19.62 32.7164 19.62 32.7169 19.62C32.7173 19.62 32.7177 19.62 32.7182 19.62C32.7186 19.62 32.719 19.62 32.7195 19.62C32.7199 19.62 32.7204 19.62 32.7208 19.62C32.7212 19.62 32.7217 19.62 32.7221 19.62C32.7225 19.62 32.723 19.62 32.7234 19.62C32.7239 19.62 32.7243 19.62 32.7247 19.62C32.7252 19.62 32.7256 19.62 32.726 19.62C32.7265 19.62 32.7269 19.62 32.7274 19.62C32.7278 19.62 32.7282 19.62 32.7287 19.62C32.7291 19.62 32.7295 19.62 32.73 19.62C32.7304 19.62 32.7309 19.62 32.7313 19.62C32.7317 19.62 32.7322 19.62 32.7326 19.62C32.733 19.62 32.7335 19.62 32.7339 19.62C32.7344 19.62 32.7348 19.62 32.7352 19.62C32.7357 19.62 32.7361 19.62 32.7365 19.62C32.737 19.62 32.7374 19.62 32.7379 19.62C32.7383 19.62 32.7387 19.62 32.7392 19.62C32.7396 19.62 32.74 19.62 32.7405 19.62C32.7409 19.62 32.7414 19.62 32.7418 19.62C32.7422 19.62 32.7427 19.62 32.7431 19.62C32.7435 19.62 32.744 19.62 32.7444 19.62C32.7449 19.62 32.7453 19.62 32.7457 19.62C32.7462 19.62 32.7466 19.62 32.747 19.62C32.7475 19.62 32.7479 19.62 32.7484 19.62C32.7488 19.62 32.7492 19.62 32.7497 19.62C32.7501 19.62 32.7505 19.62 32.751 19.62C32.7514 19.62 32.7519 19.62 32.7523 19.62C32.7527 19.62 32.7532 19.62 32.7536 19.62C32.754 19.62 32.7545 19.62 32.7549 19.62C32.7554 19.62 32.7558 19.62 32.7562 19.62C32.7567 19.62 32.7571 19.62 32.7575 19.62C32.758 19.62 32.7584 19.62 32.7589 19.62C32.7593 19.62 32.7597 19.62 32.7602 19.62C32.7606 19.62 32.761 19.62 32.7615 19.62C32.7619 19.62 32.7624 19.62 32.7628 19.62C32.7632 19.62 32.7637 19.62 32.7641 19.62C32.7645 19.62 32.765 19.62 32.7654 19.62C32.7659 19.62 32.7663 19.62 32.7667 19.62C32.7672 19.62 32.7676 19.62 32.768 19.62C32.7685 19.62 32.7689 19.62 32.7694 19.62C32.7698 19.62 32.7702 19.62 32.7707 19.62C32.7711 19.62 32.7715 19.62 32.772 19.62C32.7724 19.62 32.7729 19.62 32.7733 19.62C32.7737 19.62 32.7742 19.62 32.7746 19.62C32.775 19.62 32.7755 19.62 32.7759 19.62C32.7764 19.62 32.7768 19.62 32.7772 19.62C32.7777 19.62 32.7781 19.62 32.7785 19.62C32.779 19.62 32.7794 19.62 32.7799 19.62C32.7803 19.62 32.7807 19.62 32.7812 19.62C32.7816 19.62 32.782 19.62 32.7825 19.62C32.7829 19.62 32.7834 19.62 32.7838 19.62C32.7842 19.62 32.7847 19.62 32.7851 19.62C32.7855 19.62 32.786 19.62 32.7864 19.62C32.7869 19.62 32.7873 19.62 32.7877 19.62C32.7882 19.62 32.7886 19.62 32.789 19.62C32.7895 19.62 32.7899 19.62 32.7904 19.62C32.7908 19.62 32.7912 19.62 32.7917 19.62C32.7921 19.62 32.7925 19.62 32.793 19.62C32.7934 19.62 32.7939 19.62 32.7943 19.62C32.7947 19.62 32.7952 19.62 32.7956 19.62C32.796 19.62 32.7965 19.62 32.7969 19.62C32.7974 19.62 32.7978 19.62 32.7982 19.62C32.7987 19.62 32.7991 19.62 32.7995 19.62C32.8 19.62 32.8004 19.62 32.8009 19.62C32.8013 19.62 32.8017 19.62 32.8022 19.62C32.8026 19.62 32.803 19.62 32.8035 19.62C32.8039 19.62 32.8044 19.62 32.8048 19.62C32.8052 19.62 32.8057 19.62 32.8061 19.62C32.8065 19.62 32.807 19.62 32.8074 19.62C32.8079 19.62 32.8083 19.62 32.8087 19.62C32.8092 19.62 32.8096 19.62 32.81 19.62C32.8105 19.62 32.8109 19.62 32.8114 19.62C32.8118 19.62 32.8122 19.62 32.8127 19.62C32.8131 19.62 32.8135 19.62 32.814 19.62C32.8144 19.62 32.8149 19.62 32.8153 19.62V17.62C32.8149 17.62 32.8144 17.62 32.814 17.62C32.8135 17.62 32.8131 17.62 32.8127 17.62C32.8122 17.62 32.8118 17.62 32.8114 17.62C32.8109 17.62 32.8105 17.62 32.81 17.62C32.8096 17.62 32.8092 17.62 32.8087 17.62C32.8083 17.62 32.8079 17.62 32.8074 17.62C32.807 17.62 32.8065 17.62 32.8061 17.62C32.8057 17.62 32.8052 17.62 32.8048 17.62C32.8044 17.62 32.8039 17.62 32.8035 17.62C32.803 17.62 32.8026 17.62 32.8022 17.62C32.8017 17.62 32.8013 17.62 32.8009 17.62C32.8004 17.62 32.8 17.62 32.7995 17.62C32.7991 17.62 32.7987 17.62 32.7982 17.62C32.7978 17.62 32.7974 17.62 32.7969 17.62C32.7965 17.62 32.796 17.62 32.7956 17.62C32.7952 17.62 32.7947 17.62 32.7943 17.62C32.7939 17.62 32.7934 17.62 32.793 17.62C32.7925 17.62 32.7921 17.62 32.7917 17.62C32.7912 17.62 32.7908 17.62 32.7904 17.62C32.7899 17.62 32.7895 17.62 32.789 17.62C32.7886 17.62 32.7882 17.62 32.7877 17.62C32.7873 17.62 32.7869 17.62 32.7864 17.62C32.786 17.62 32.7855 17.62 32.7851 17.62C32.7847 17.62 32.7842 17.62 32.7838 17.62C32.7834 17.62 32.7829 17.62 32.7825 17.62C32.782 17.62 32.7816 17.62 32.7812 17.62C32.7807 17.62 32.7803 17.62 32.7799 17.62C32.7794 17.62 32.779 17.62 32.7785 17.62C32.7781 17.62 32.7777 17.62 32.7772 17.62C32.7768 17.62 32.7764 17.62 32.7759 17.62C32.7755 17.62 32.775 17.62 32.7746 17.62C32.7742 17.62 32.7737 17.62 32.7733 17.62C32.7729 17.62 32.7724 17.62 32.772 17.62C32.7715 17.62 32.7711 17.62 32.7707 17.62C32.7702 17.62 32.7698 17.62 32.7694 17.62C32.7689 17.62 32.7685 17.62 32.768 17.62C32.7676 17.62 32.7672 17.62 32.7667 17.62C32.7663 17.62 32.7659 17.62 32.7654 17.62C32.765 17.62 32.7645 17.62 32.7641 17.62C32.7637 17.62 32.7632 17.62 32.7628 17.62C32.7624 17.62 32.7619 17.62 32.7615 17.62C32.761 17.62 32.7606 17.62 32.7602 17.62C32.7597 17.62 32.7593 17.62 32.7589 17.62C32.7584 17.62 32.758 17.62 32.7575 17.62C32.7571 17.62 32.7567 17.62 32.7562 17.62C32.7558 17.62 32.7554 17.62 32.7549 17.62C32.7545 17.62 32.754 17.62 32.7536 17.62C32.7532 17.62 32.7527 17.62 32.7523 17.62C32.7519 17.62 32.7514 17.62 32.751 17.62C32.7505 17.62 32.7501 17.62 32.7497 17.62C32.7492 17.62 32.7488 17.62 32.7484 17.62C32.7479 17.62 32.7475 17.62 32.747 17.62C32.7466 17.62 32.7462 17.62 32.7457 17.62C32.7453 17.62 32.7449 17.62 32.7444 17.62C32.744 17.62 32.7435 17.62 32.7431 17.62C32.7427 17.62 32.7422 17.62 32.7418 17.62C32.7414 17.62 32.7409 17.62 32.7405 17.62C32.74 17.62 32.7396 17.62 32.7392 17.62C32.7387 17.62 32.7383 17.62 32.7379 17.62C32.7374 17.62 32.737 17.62 32.7365 17.62C32.7361 17.62 32.7357 17.62 32.7352 17.62C32.7348 17.62 32.7344 17.62 32.7339 17.62C32.7335 17.62 32.733 17.62 32.7326 17.62C32.7322 17.62 32.7317 17.62 32.7313 17.62C32.7309 17.62 32.7304 17.62 32.73 17.62C32.7295 17.62 32.7291 17.62 32.7287 17.62C32.7282 17.62 32.7278 17.62 32.7274 17.62C32.7269 17.62 32.7265 17.62 32.726 17.62C32.7256 17.62 32.7252 17.62 32.7247 17.62C32.7243 17.62 32.7239 17.62 32.7234 17.62C32.723 17.62 32.7225 17.62 32.7221 17.62C32.7217 17.62 32.7212 17.62 32.7208 17.62C32.7204 17.62 32.7199 17.62 32.7195 17.62C32.719 17.62 32.7186 17.62 32.7182 17.62C32.7177 17.62 32.7173 17.62 32.7169 17.62C32.7164 17.62 32.716 17.62 32.7155 17.62C32.7151 17.62 32.7147 17.62 32.7142 17.62C32.7138 17.62 32.7134 17.62 32.7129 17.62C32.7125 17.62 32.712 17.62 32.7116 17.62C32.7112 17.62 32.7107 17.62 32.7103 17.62C32.7099 17.62 32.7094 17.62 32.709 17.62C32.7085 17.62 32.7081 17.62 32.7077 17.62C32.7072 17.62 32.7068 17.62 32.7064 17.62C32.7059 17.62 32.7055 17.62 32.705 17.62C32.7046 17.62 32.7042 17.62 32.7037 17.62C32.7033 17.62 32.7029 17.62 32.7024 17.62C32.702 17.62 32.7015 17.62 32.7011 17.62C32.7007 17.62 32.7002 17.62 32.6998 17.62C32.6994 17.62 32.6989 17.62 32.6985 17.62C32.698 17.62 32.6976 17.62 32.6972 17.62C32.6967 17.62 32.6963 17.62 32.6959 17.62C32.6954 17.62 32.695 17.62 32.6945 17.62C32.6941 17.62 32.6937 17.62 32.6932 17.62C32.6928 17.62 32.6924 17.62 32.6919 17.62C32.6915 17.62 32.691 17.62 32.6906 17.62C32.6902 17.62 32.6897 17.62 32.6893 17.62C32.6889 17.62 32.6884 17.62 32.688 17.62C32.6875 17.62 32.6871 17.62 32.6867 17.62C32.6862 17.62 32.6858 17.62 32.6854 17.62C32.6849 17.62 32.6845 17.62 32.684 17.62C32.6836 17.62 32.6832 17.62 32.6827 17.62C32.6823 17.62 32.6819 17.62 32.6814 17.62C32.681 17.62 32.6805 17.62 32.6801 17.62C32.6797 17.62 32.6792 17.62 32.6788 17.62C32.6784 17.62 32.6779 17.62 32.6775 17.62C32.677 17.62 32.6766 17.62 32.6762 17.62C32.6757 17.62 32.6753 17.62 32.6749 17.62C32.6744 17.62 32.674 17.62 32.6735 17.62C32.6731 17.62 32.6727 17.62 32.6722 17.62C32.6718 17.62 32.6714 17.62 32.6709 17.62C32.6705 17.62 32.67 17.62 32.6696 17.62C32.6692 17.62 32.6687 17.62 32.6683 17.62C32.6679 17.62 32.6674 17.62 32.667 17.62C32.6665 17.62 32.6661 17.62 32.6657 17.62C32.6652 17.62 32.6648 17.62 32.6644 17.62C32.6639 17.62 32.6635 17.62 32.663 17.62C32.6626 17.62 32.6622 17.62 32.6617 17.62C32.6613 17.62 32.6609 17.62 32.6604 17.62C32.66 17.62 32.6595 17.62 32.6591 17.62C32.6587 17.62 32.6582 17.62 32.6578 17.62C32.6574 17.62 32.6569 17.62 32.6565 17.62C32.656 17.62 32.6556 17.62 32.6552 17.62C32.6547 17.62 32.6543 17.62 32.6539 17.62C32.6534 17.62 32.653 17.62 32.6525 17.62C32.6521 17.62 32.6517 17.62 32.6512 17.62C32.6508 17.62 32.6504 17.62 32.6499 17.62C32.6495 17.62 32.649 17.62 32.6486 17.62C32.6482 17.62 32.6477 17.62 32.6473 17.62C32.6469 17.62 32.6464 17.62 32.646 17.62C32.6455 17.62 32.6451 17.62 32.6447 17.62C32.6442 17.62 32.6438 17.62 32.6434 17.62C32.6429 17.62 32.6425 17.62 32.642 17.62C32.6416 17.62 32.6412 17.62 32.6407 17.62C32.6403 17.62 32.6399 17.62 32.6394 17.62C32.639 17.62 32.6385 17.62 32.6381 17.62C32.6377 17.62 32.6372 17.62 32.6368 17.62C32.6364 17.62 32.6359 17.62 32.6355 17.62C32.635 17.62 32.6346 17.62 32.6342 17.62C32.6337 17.62 32.6333 17.62 32.6329 17.62C32.6324 17.62 32.632 17.62 32.6315 17.62C32.6311 17.62 32.6307 17.62 32.6302 17.62C32.6298 17.62 32.6294 17.62 32.6289 17.62C32.6285 17.62 32.628 17.62 32.6276 17.62C32.6272 17.62 32.6267 17.62 32.6263 17.62C32.6259 17.62 32.6254 17.62 32.625 17.62C32.6245 17.62 32.6241 17.62 32.6237 17.62C32.6232 17.62 32.6228 17.62 32.6224 17.62C32.6219 17.62 32.6215 17.62 32.621 17.62C32.6206 17.62 32.6202 17.62 32.6197 17.62C32.6193 17.62 32.6189 17.62 32.6184 17.62C32.618 17.62 32.6175 17.62 32.6171 17.62C32.6167 17.62 32.6162 17.62 32.6158 17.62C32.6154 17.62 32.6149 17.62 32.6145 17.62C32.614 17.62 32.6136 17.62 32.6132 17.62C32.6127 17.62 32.6123 17.62 32.6119 17.62C32.6114 17.62 32.611 17.62 32.6105 17.62C32.6101 17.62 32.6097 17.62 32.6092 17.62C32.6088 17.62 32.6084 17.62 32.6079 17.62C32.6075 17.62 32.607 17.62 32.6066 17.62C32.6062 17.62 32.6057 17.62 32.6053 17.62C32.6049 17.62 32.6044 17.62 32.604 17.62C32.6035 17.62 32.6031 17.62 32.6027 17.62C32.6022 17.62 32.6018 17.62 32.6014 17.62C32.6009 17.62 32.6005 17.62 32.6 17.62C32.5996 17.62 32.5992 17.62 32.5987 17.62C32.5983 17.62 32.5979 17.62 32.5974 17.62C32.597 17.62 32.5965 17.62 32.5961 17.62C32.5957 17.62 32.5952 17.62 32.5948 17.62C32.5944 17.62 32.5939 17.62 32.5935 17.62C32.593 17.62 32.5926 17.62 32.5922 17.62C32.5917 17.62 32.5913 17.62 32.5909 17.62C32.5904 17.62 32.59 17.62 32.5895 17.62C32.5891 17.62 32.5887 17.62 32.5882 17.62C32.5878 17.62 32.5874 17.62 32.5869 17.62C32.5865 17.62 32.586 17.62 32.5856 17.62C32.5852 17.62 32.5847 17.62 32.5843 17.62C32.5839 17.62 32.5834 17.62 32.583 17.62C32.5825 17.62 32.5821 17.62 32.5817 17.62C32.5812 17.62 32.5808 17.62 32.5804 17.62C32.5799 17.62 32.5795 17.62 32.579 17.62C32.5786 17.62 32.5782 17.62 32.5777 17.62C32.5773 17.62 32.5769 17.62 32.5764 17.62C32.576 17.62 32.5755 17.62 32.5751 17.62C32.5747 17.62 32.5742 17.62 32.5738 17.62C32.5734 17.62 32.5729 17.62 32.5725 17.62C32.572 17.62 32.5716 17.62 32.5712 17.62C32.5707 17.62 32.5703 17.62 32.5699 17.62C32.5694 17.62 32.569 17.62 32.5685 17.62C32.5681 17.62 32.5677 17.62 32.5672 17.62C32.5668 17.62 32.5664 17.62 32.5659 17.62C32.5655 17.62 32.565 17.62 32.5646 17.62C32.5642 17.62 32.5637 17.62 32.5633 17.62C32.5629 17.62 32.5624 17.62 32.562 17.62C32.5615 17.62 32.5611 17.62 32.5607 17.62C32.5602 17.62 32.5598 17.62 32.5594 17.62C32.5589 17.62 32.5585 17.62 32.558 17.62C32.5576 17.62 32.5572 17.62 32.5567 17.62C32.5563 17.62 32.5559 17.62 32.5554 17.62C32.555 17.62 32.5545 17.62 32.5541 17.62C32.5537 17.62 32.5532 17.62 32.5528 17.62C32.5524 17.62 32.5519 17.62 32.5515 17.62C32.551 17.62 32.5506 17.62 32.5502 17.62C32.5497 17.62 32.5493 17.62 32.5489 17.62C32.5484 17.62 32.548 17.62 32.5475 17.62C32.5471 17.62 32.5467 17.62 32.5462 17.62C32.5458 17.62 32.5454 17.62 32.5449 17.62C32.5445 17.62 32.544 17.62 32.5436 17.62C32.5432 17.62 32.5427 17.62 32.5423 17.62C32.5419 17.62 32.5414 17.62 32.541 17.62C32.5405 17.62 32.5401 17.62 32.5397 17.62C32.5392 17.62 32.5388 17.62 32.5384 17.62C32.5379 17.62 32.5375 17.62 32.537 17.62C32.5366 17.62 32.5362 17.62 32.5357 17.62C32.5353 17.62 32.5349 17.62 32.5344 17.62C32.534 17.62 32.5335 17.62 32.5331 17.62C32.5327 17.62 32.5322 17.62 32.5318 17.62C32.5314 17.62 32.5309 17.62 32.5305 17.62C32.53 17.62 32.5296 17.62 32.5292 17.62C32.5287 17.62 32.5283 17.62 32.5279 17.62C32.5274 17.62 32.527 17.62 32.5265 17.62C32.5261 17.62 32.5257 17.62 32.5252 17.62C32.5248 17.62 32.5244 17.62 32.5239 17.62C32.5235 17.62 32.523 17.62 32.5226 17.62C32.5222 17.62 32.5217 17.62 32.5213 17.62C32.5209 17.62 32.5204 17.62 32.52 17.62C32.5195 17.62 32.5191 17.62 32.5187 17.62C32.5182 17.62 32.5178 17.62 32.5174 17.62C32.5169 17.62 32.5165 17.62 32.516 17.62C32.5156 17.62 32.5152 17.62 32.5147 17.62C32.5143 17.62 32.5139 17.62 32.5134 17.62C32.513 17.62 32.5125 17.62 32.5121 17.62C32.5117 17.62 32.5112 17.62 32.5108 17.62C32.5104 17.62 32.5099 17.62 32.5095 17.62C32.509 17.62 32.5086 17.62 32.5082 17.62C32.5077 17.62 32.5073 17.62 32.5069 17.62C32.5064 17.62 32.506 17.62 32.5055 17.62C32.5051 17.62 32.5047 17.62 32.5042 17.62C32.5038 17.62 32.5034 17.62 32.5029 17.62C32.5025 17.62 32.502 17.62 32.5016 17.62C32.5012 17.62 32.5007 17.62 32.5003 17.62C32.4999 17.62 32.4994 17.62 32.499 17.62C32.4985 17.62 32.4981 17.62 32.4977 17.62C32.4972 17.62 32.4968 17.62 32.4964 17.62C32.4959 17.62 32.4955 17.62 32.495 17.62C32.4946 17.62 32.4942 17.62 32.4937 17.62C32.4933 17.62 32.4929 17.62 32.4924 17.62C32.492 17.62 32.4915 17.62 32.4911 17.62C32.4907 17.62 32.4902 17.62 32.4898 17.62C32.4894 17.62 32.4889 17.62 32.4885 17.62C32.488 17.62 32.4876 17.62 32.4872 17.62C32.4867 17.62 32.4863 17.62 32.4859 17.62C32.4854 17.62 32.485 17.62 32.4845 17.62C32.4841 17.62 32.4837 17.62 32.4832 17.62C32.4828 17.62 32.4824 17.62 32.4819 17.62C32.4815 17.62 32.481 17.62 32.4806 17.62C32.4802 17.62 32.4797 17.62 32.4793 17.62C32.4789 17.62 32.4784 17.62 32.478 17.62C32.4775 17.62 32.4771 17.62 32.4767 17.62C32.4762 17.62 32.4758 17.62 32.4754 17.62C32.4749 17.62 32.4745 17.62 32.474 17.62C32.4736 17.62 32.4732 17.62 32.4727 17.62C32.4723 17.62 32.4719 17.62 32.4714 17.62C32.471 17.62 32.4705 17.62 32.4701 17.62C32.4697 17.62 32.4692 17.62 32.4688 17.62C32.4684 17.62 32.4679 17.62 32.4675 17.62C32.467 17.62 32.4666 17.62 32.4662 17.62C32.4657 17.62 32.4653 17.62 32.4649 17.62C32.4644 17.62 32.464 17.62 32.4635 17.62C32.4631 17.62 32.4627 17.62 32.4622 17.62C32.4618 17.62 32.4614 17.62 32.4609 17.62C32.4605 17.62 32.46 17.62 32.4596 17.62C32.4592 17.62 32.4587 17.62 32.4583 17.62C32.4579 17.62 32.4574 17.62 32.457 17.62C32.4565 17.62 32.4561 17.62 32.4557 17.62C32.4552 17.62 32.4548 17.62 32.4544 17.62C32.4539 17.62 32.4535 17.62 32.453 17.62C32.4526 17.62 32.4522 17.62 32.4517 17.62C32.4513 17.62 32.4509 17.62 32.4504 17.62C32.45 17.62 32.4495 17.62 32.4491 17.62C32.4487 17.62 32.4482 17.62 32.4478 17.62C32.4474 17.62 32.4469 17.62 32.4465 17.62C32.446 17.62 32.4456 17.62 32.4452 17.62C32.4447 17.62 32.4443 17.62 32.4439 17.62C32.4434 17.62 32.443 17.62 32.4425 17.62C32.4421 17.62 32.4417 17.62 32.4412 17.62C32.4408 17.62 32.4404 17.62 32.4399 17.62C32.4395 17.62 32.439 17.62 32.4386 17.62C32.4382 17.62 32.4377 17.62 32.4373 17.62C32.4369 17.62 32.4364 17.62 32.436 17.62C32.4355 17.62 32.4351 17.62 32.4347 17.62C32.4342 17.62 32.4338 17.62 32.4334 17.62C32.4329 17.62 32.4325 17.62 32.432 17.62C32.4316 17.62 32.4312 17.62 32.4307 17.62C32.4303 17.62 32.4299 17.62 32.4294 17.62C32.429 17.62 32.4285 17.62 32.4281 17.62C32.4277 17.62 32.4272 17.62 32.4268 17.62C32.4264 17.62 32.4259 17.62 32.4255 17.62C32.425 17.62 32.4246 17.62 32.4242 17.62C32.4237 17.62 32.4233 17.62 32.4229 17.62C32.4224 17.62 32.422 17.62 32.4215 17.62C32.4211 17.62 32.4207 17.62 32.4202 17.62C32.4198 17.62 32.4194 17.62 32.4189 17.62C32.4185 17.62 32.418 17.62 32.4176 17.62C32.4172 17.62 32.4167 17.62 32.4163 17.62C32.4159 17.62 32.4154 17.62 32.415 17.62C32.4145 17.62 32.4141 17.62 32.4137 17.62C32.4132 17.62 32.4128 17.62 32.4124 17.62C32.4119 17.62 32.4115 17.62 32.411 17.62C32.4106 17.62 32.4102 17.62 32.4097 17.62C32.4093 17.62 32.4089 17.62 32.4084 17.62C32.408 17.62 32.4075 17.62 32.4071 17.62C32.4067 17.62 32.4062 17.62 32.4058 17.62C32.4054 17.62 32.4049 17.62 32.4045 17.62C32.404 17.62 32.4036 17.62 32.4032 17.62C32.4027 17.62 32.4023 17.62 32.4019 17.62C32.4014 17.62 32.401 17.62 32.4005 17.62C32.4001 17.62 32.3997 17.62 32.3992 17.62C32.3988 17.62 32.3984 17.62 32.3979 17.62C32.3975 17.62 32.397 17.62 32.3966 17.62C32.3962 17.62 32.3957 17.62 32.3953 17.62C32.3949 17.62 32.3944 17.62 32.394 17.62C32.3935 17.62 32.3931 17.62 32.3927 17.62C32.3922 17.62 32.3918 17.62 32.3914 17.62C32.3909 17.62 32.3905 17.62 32.39 17.62C32.3896 17.62 32.3892 17.62 32.3887 17.62C32.3883 17.62 32.3879 17.62 32.3874 17.62C32.387 17.62 32.3865 17.62 32.3861 17.62C32.3857 17.62 32.3852 17.62 32.3848 17.62C32.3844 17.62 32.3839 17.62 32.3835 17.62C32.383 17.62 32.3826 17.62 32.3822 17.62C32.3817 17.62 32.3813 17.62 32.3809 17.62C32.3804 17.62 32.38 17.62 32.3795 17.62C32.3791 17.62 32.3787 17.62 32.3782 17.62C32.3778 17.62 32.3774 17.62 32.3769 17.62C32.3765 17.62 32.376 17.62 32.3756 17.62C32.3752 17.62 32.3747 17.62 32.3743 17.62C32.3739 17.62 32.3734 17.62 32.373 17.62C32.3725 17.62 32.3721 17.62 32.3717 17.62C32.3712 17.62 32.3708 17.62 32.3704 17.62C32.3699 17.62 32.3695 17.62 32.369 17.62C32.3686 17.62 32.3682 17.62 32.3677 17.62C32.3673 17.62 32.3669 17.62 32.3664 17.62C32.366 17.62 32.3655 17.62 32.3651 17.62C32.3647 17.62 32.3642 17.62 32.3638 17.62C32.3634 17.62 32.3629 17.62 32.3625 17.62C32.362 17.62 32.3616 17.62 32.3612 17.62C32.3607 17.62 32.3603 17.62 32.3599 17.62C32.3594 17.62 32.359 17.62 32.3585 17.62C32.3581 17.62 32.3577 17.62 32.3572 17.62C32.3568 17.62 32.3564 17.62 32.3559 17.62C32.3555 17.62 32.355 17.62 32.3546 17.62C32.3542 17.62 32.3537 17.62 32.3533 17.62C32.3529 17.62 32.3524 17.62 32.352 17.62C32.3515 17.62 32.3511 17.62 32.3507 17.62C32.3502 17.62 32.3498 17.62 32.3494 17.62C32.3489 17.62 32.3485 17.62 32.348 17.62C32.3476 17.62 32.3472 17.62 32.3467 17.62C32.3463 17.62 32.3459 17.62 32.3454 17.62C32.345 17.62 32.3445 17.62 32.3441 17.62C32.3437 17.62 32.3432 17.62 32.3428 17.62C32.3424 17.62 32.3419 17.62 32.3415 17.62C32.341 17.62 32.3406 17.62 32.3402 17.62C32.3397 17.62 32.3393 17.62 32.3389 17.62C32.3384 17.62 32.338 17.62 32.3375 17.62C32.3371 17.62 32.3367 17.62 32.3362 17.62C32.3358 17.62 32.3354 17.62 32.3349 17.62C32.3345 17.62 32.334 17.62 32.3336 17.62C32.3332 17.62 32.3327 17.62 32.3323 17.62C32.3319 17.62 32.3314 17.62 32.331 17.62C32.3305 17.62 32.3301 17.62 32.3297 17.62C32.3292 17.62 32.3288 17.62 32.3284 17.62C32.3279 17.62 32.3275 17.62 32.327 17.62C32.3266 17.62 32.3262 17.62 32.3257 17.62C32.3253 17.62 32.3249 17.62 32.3244 17.62C32.324 17.62 32.3235 17.62 32.3231 17.62C32.3227 17.62 32.3222 17.62 32.3218 17.62C32.3214 17.62 32.3209 17.62 32.3205 17.62C32.32 17.62 32.3196 17.62 32.3192 17.62C32.3187 17.62 32.3183 17.62 32.3179 17.62C32.3174 17.62 32.317 17.62 32.3165 17.62C32.3161 17.62 32.3157 17.62 32.3152 17.62C32.3148 17.62 32.3144 17.62 32.3139 17.62C32.3135 17.62 32.313 17.62 32.3126 17.62C32.3122 17.62 32.3117 17.62 32.3113 17.62C32.3109 17.62 32.3104 17.62 32.31 17.62C32.3095 17.62 32.3091 17.62 32.3087 17.62C32.3082 17.62 32.3078 17.62 32.3074 17.62C32.3069 17.62 32.3065 17.62 32.306 17.62C32.3056 17.62 32.3052 17.62 32.3047 17.62C32.3043 17.62 32.3039 17.62 32.3034 17.62C32.303 17.62 32.3025 17.62 32.3021 17.62C32.3017 17.62 32.3012 17.62 32.3008 17.62C32.3004 17.62 32.2999 17.62 32.2995 17.62C32.299 17.62 32.2986 17.62 32.2982 17.62C32.2977 17.62 32.2973 17.62 32.2969 17.62C32.2964 17.62 32.296 17.62 32.2955 17.62C32.2951 17.62 32.2947 17.62 32.2942 17.62C32.2938 17.62 32.2934 17.62 32.2929 17.62C32.2925 17.62 32.292 17.62 32.2916 17.62C32.2912 17.62 32.2907 17.62 32.2903 17.62C32.2899 17.62 32.2894 17.62 32.289 17.62C32.2885 17.62 32.2881 17.62 32.2877 17.62C32.2872 17.62 32.2868 17.62 32.2864 17.62C32.2859 17.62 32.2855 17.62 32.285 17.62C32.2846 17.62 32.2842 17.62 32.2837 17.62C32.2833 17.62 32.2829 17.62 32.2824 17.62C32.282 17.62 32.2815 17.62 32.2811 17.62C32.2807 17.62 32.2802 17.62 32.2798 17.62C32.2794 17.62 32.2789 17.62 32.2785 17.62C32.278 17.62 32.2776 17.62 32.2772 17.62C32.2767 17.62 32.2763 17.62 32.2759 17.62C32.2754 17.62 32.275 17.62 32.2745 17.62C32.2741 17.62 32.2737 17.62 32.2732 17.62C32.2728 17.62 32.2724 17.62 32.2719 17.62C32.2715 17.62 32.271 17.62 32.2706 17.62C32.2702 17.62 32.2697 17.62 32.2693 17.62C32.2689 17.62 32.2684 17.62 32.268 17.62C32.2675 17.62 32.2671 17.62 32.2667 17.62C32.2662 17.62 32.2658 17.62 32.2654 17.62C32.2649 17.62 32.2645 17.62 32.264 17.62C32.2636 17.62 32.2632 17.62 32.2627 17.62C32.2623 17.62 32.2619 17.62 32.2614 17.62C32.261 17.62 32.2605 17.62 32.2601 17.62C32.2597 17.62 32.2592 17.62 32.2588 17.62C32.2584 17.62 32.2579 17.62 32.2575 17.62C32.257 17.62 32.2566 17.62 32.2562 17.62C32.2557 17.62 32.2553 17.62 32.2549 17.62C32.2544 17.62 32.254 17.62 32.2535 17.62C32.2531 17.62 32.2527 17.62 32.2522 17.62C32.2518 17.62 32.2514 17.62 32.2509 17.62C32.2505 17.62 32.25 17.62 32.2496 17.62C32.2492 17.62 32.2487 17.62 32.2483 17.62C32.2479 17.62 32.2474 17.62 32.247 17.62C32.2465 17.62 32.2461 17.62 32.2457 17.62C32.2452 17.62 32.2448 17.62 32.2444 17.62C32.2439 17.62 32.2435 17.62 32.243 17.62C32.2426 17.62 32.2422 17.62 32.2417 17.62C32.2413 17.62 32.2409 17.62 32.2404 17.62C32.24 17.62 32.2395 17.62 32.2391 17.62C32.2387 17.62 32.2382 17.62 32.2378 17.62C32.2374 17.62 32.2369 17.62 32.2365 17.62C32.236 17.62 32.2356 17.62 32.2352 17.62C32.2347 17.62 32.2343 17.62 32.2339 17.62C32.2334 17.62 32.233 17.62 32.2325 17.62C32.2321 17.62 32.2317 17.62 32.2312 17.62C32.2308 17.62 32.2304 17.62 32.2299 17.62C32.2295 17.62 32.229 17.62 32.2286 17.62C32.2282 17.62 32.2277 17.62 32.2273 17.62C32.2269 17.62 32.2264 17.62 32.226 17.62C32.2255 17.62 32.2251 17.62 32.2247 17.62C32.2242 17.62 32.2238 17.62 32.2234 17.62C32.2229 17.62 32.2225 17.62 32.222 17.62C32.2216 17.62 32.2212 17.62 32.2207 17.62C32.2203 17.62 32.2199 17.62 32.2194 17.62C32.219 17.62 32.2185 17.62 32.2181 17.62C32.2177 17.62 32.2172 17.62 32.2168 17.62C32.2164 17.62 32.2159 17.62 32.2155 17.62C32.215 17.62 32.2146 17.62 32.2142 17.62C32.2137 17.62 32.2133 17.62 32.2129 17.62C32.2124 17.62 32.212 17.62 32.2115 17.62C32.2111 17.62 32.2107 17.62 32.2102 17.62C32.2098 17.62 32.2094 17.62 32.2089 17.62C32.2085 17.62 32.208 17.62 32.2076 17.62C32.2072 17.62 32.2067 17.62 32.2063 17.62C32.2059 17.62 32.2054 17.62 32.205 17.62C32.2045 17.62 32.2041 17.62 32.2037 17.62C32.2032 17.62 32.2028 17.62 32.2024 17.62C32.2019 17.62 32.2015 17.62 32.201 17.62C32.2006 17.62 32.2002 17.62 32.1997 17.62C32.1993 17.62 32.1989 17.62 32.1984 17.62C32.198 17.62 32.1975 17.62 32.1971 17.62C32.1967 17.62 32.1962 17.62 32.1958 17.62C32.1954 17.62 32.1949 17.62 32.1945 17.62C32.194 17.62 32.1936 17.62 32.1932 17.62C32.1927 17.62 32.1923 17.62 32.1919 17.62C32.1914 17.62 32.191 17.62 32.1905 17.62C32.1901 17.62 32.1897 17.62 32.1892 17.62C32.1888 17.62 32.1884 17.62 32.1879 17.62C32.1875 17.62 32.187 17.62 32.1866 17.62C32.1862 17.62 32.1857 17.62 32.1853 17.62C32.1849 17.62 32.1844 17.62 32.184 17.62C32.1835 17.62 32.1831 17.62 32.1827 17.62C32.1822 17.62 32.1818 17.62 32.1814 17.62C32.1809 17.62 32.1805 17.62 32.18 17.62C32.1796 17.62 32.1792 17.62 32.1787 17.62C32.1783 17.62 32.1779 17.62 32.1774 17.62C32.177 17.62 32.1765 17.62 32.1761 17.62C32.1757 17.62 32.1752 17.62 32.1748 17.62C32.1744 17.62 32.1739 17.62 32.1735 17.62C32.173 17.62 32.1726 17.62 32.1722 17.62C32.1717 17.62 32.1713 17.62 32.1709 17.62C32.1704 17.62 32.17 17.62 32.1695 17.62C32.1691 17.62 32.1687 17.62 32.1682 17.62C32.1678 17.62 32.1674 17.62 32.1669 17.62C32.1665 17.62 32.166 17.62 32.1656 17.62C32.1652 17.62 32.1647 17.62 32.1643 17.62C32.1639 17.62 32.1634 17.62 32.163 17.62C32.1625 17.62 32.1621 17.62 32.1617 17.62C32.1612 17.62 32.1608 17.62 32.1604 17.62C32.1599 17.62 32.1595 17.62 32.159 17.62C32.1586 17.62 32.1582 17.62 32.1577 17.62C32.1573 17.62 32.1569 17.62 32.1564 17.62C32.156 17.62 32.1555 17.62 32.1551 17.62C32.1547 17.62 32.1542 17.62 32.1538 17.62C32.1534 17.62 32.1529 17.62 32.1525 17.62C32.152 17.62 32.1516 17.62 32.1512 17.62C32.1507 17.62 32.1503 17.62 32.1499 17.62C32.1494 17.62 32.149 17.62 32.1485 17.62C32.1481 17.62 32.1477 17.62 32.1472 17.62C32.1468 17.62 32.1464 17.62 32.1459 17.62C32.1455 17.62 32.145 17.62 32.1446 17.62C32.1442 17.62 32.1437 17.62 32.1433 17.62V19.62ZM32.8983 19.6165C33.1776 19.5933 33.4549 19.5469 33.7298 19.4781L33.2448 17.5379C33.0717 17.5811 32.901 17.6094 32.7323 17.6235L32.8983 19.6165ZM32.4873 18.508V20.972H34.4873V18.508H32.4873ZM33.3826 19.9775C33.0261 20.015 32.6789 20.0526 32.3409 20.0901L32.5617 22.0779C32.8957 22.0408 33.2391 22.0036 33.592 21.9665L33.3826 19.9775ZM32.3409 20.0901C32.0433 20.1232 31.7349 20.14 31.4153 20.14V22.14C31.8051 22.14 32.1873 22.1195 32.5617 22.0779L32.3409 20.0901ZM31.4153 20.14C30.6235 20.14 30.0447 20.0684 29.646 19.9545L29.0966 21.8775C29.7433 22.0623 30.5271 22.14 31.4153 22.14V20.14ZM29.6875 19.9673C29.2938 19.8361 29.0387 19.6732 28.8744 19.5089L27.4602 20.9231C27.8932 21.3562 28.4408 21.6599 29.0551 21.8647L29.6875 19.9673ZM28.9171 19.5544C28.7589 19.3751 28.6307 19.136 28.5517 18.8066L26.6069 19.2734C26.7519 19.8773 27.0157 20.4223 27.4175 20.8776L28.9171 19.5544ZM28.5599 18.8439C28.4797 18.4432 28.4282 17.968 28.4108 17.4128L26.4118 17.4752C26.4318 18.1146 26.4922 18.7034 26.5987 19.2361L28.5599 18.8439ZM28.4113 17.444V8.904H26.4113V17.444H28.4113ZM27.4113 7.904H25.0033V9.904H27.4113V7.904ZM26.0033 8.904V6.524H24.0033V8.904H26.0033ZM38.5275 14.336H39.5275V13.336H38.5275V14.336ZM40.0115 17.64L39.4064 18.4362L39.4167 18.444L39.4272 18.4515L40.0115 17.64ZM41.6075 18.396L41.3368 19.3587L41.3543 19.3636L41.3719 19.3678L41.6075 18.396ZM45.5555 18.368L45.8519 19.3231L45.8668 19.3184L45.8815 19.3134L45.5555 18.368ZM46.8715 17.668L46.2313 16.8998L46.8715 17.668ZM47.5995 16.716L48.5212 17.1041L48.5246 17.0958L48.528 17.0874L47.5995 16.716ZM47.2915 13.916L46.5482 14.585L46.5658 14.6045L46.5844 14.6231L47.2915 13.916ZM46.1715 13.132L45.8258 14.0704L45.8298 14.0718L46.1715 13.132ZM43.6795 12.404L43.4279 13.3718L43.4391 13.3748L43.4505 13.3774L43.6795 12.404ZM40.2075 11.48L40.4684 10.5146L40.4599 10.5124L40.2075 11.48ZM38.0515 10.612L37.4968 11.444L37.5127 11.4546L37.529 11.4646L38.0515 10.612ZM36.7075 9.38L35.9075 9.98L36.7075 9.38ZM35.9795 7.952L35.0115 8.20296L35.0158 8.2196L35.0207 8.23609L35.9795 7.952ZM36.3995 3.808L35.5326 3.30951L35.5285 3.31668L36.3995 3.808ZM38.0795 1.96L38.6545 2.77819L38.0795 1.96ZM40.4315 0.895998L40.6789 1.86492L40.6885 1.86246L40.6981 1.85981L40.4315 0.895998ZM46.0315 0.952L45.7388 1.9082L45.7503 1.91172L45.7619 1.91496L46.0315 0.952ZM48.4675 2.156L47.8506 2.94312L47.8608 2.95095L48.4675 2.156ZM50.1475 4.172L49.2572 4.6275L49.2617 4.63601L50.1475 4.172ZM50.7635 6.916V7.916H51.7635V6.916H50.7635ZM47.2635 6.916L46.2661 6.98827L46.3334 7.916H47.2635V6.916ZM45.9475 4.2L45.3793 5.0229L45.386 5.02753L45.3928 5.03205L45.9475 4.2ZM41.6915 3.528L41.8629 4.51321L41.8835 4.50962L41.9039 4.50518L41.6915 3.528ZM40.5155 3.948L40.9813 4.83292L40.9991 4.82353L41.0166 4.81343L40.5155 3.948ZM39.6195 4.732L38.8088 4.14651L38.7979 4.1617L38.7875 4.1773L39.6195 4.732ZM39.9275 7.672L39.2363 8.39464L39.2523 8.40997L39.269 8.42458L39.9275 7.672ZM41.6635 8.568L41.3855 9.52856L41.4031 9.53368L41.421 9.53814L41.6635 8.568ZM42.5315 8.82L42.2474 9.7788L42.2681 9.78492L42.289 9.79014L42.5315 8.82ZM44.2675 9.268L44.0116 10.2347L44.2675 9.268ZM46.1155 9.772L45.8448 10.7346L45.8623 10.7396L45.8799 10.7438L46.1155 9.772ZM47.4315 10.108L47.7313 9.15401L47.7188 9.15008L47.7062 9.14647L47.4315 10.108ZM49.1395 10.948L48.5495 11.7554L49.1395 10.948ZM50.3435 12.18L49.5166 12.7423L49.5296 12.7615L49.5435 12.78L50.3435 12.18ZM51.0715 13.636L50.11 13.9107L50.1145 13.9264L50.1195 13.942L51.0715 13.636ZM50.6235 18.088L49.759 17.5854L49.7553 17.5919L50.6235 18.088ZM48.8315 20.02L48.272 19.1912L48.8315 20.02ZM46.2835 21.112L46.0545 20.1386L46.0455 20.1407L46.0365 20.143L46.2835 21.112ZM40.1515 21.056L40.4192 20.0925L40.1515 21.056ZM37.5195 19.768L38.1321 18.9776L37.5195 19.768ZM35.7275 17.556L34.8294 17.9959L34.8331 18.0032L35.7275 17.556ZM35.0275 14.336V13.336H34.0122L34.0276 14.3512L35.0275 14.336ZM37.5275 14.336C37.5275 15.212 37.6768 16.022 38.019 16.7307L39.8201 15.8612C39.6395 15.4873 39.5275 14.9906 39.5275 14.336H37.5275ZM38.019 16.7307C38.3471 17.4104 38.8109 17.9835 39.4064 18.4362L40.6166 16.8438C40.2788 16.5871 40.0146 16.2642 39.8201 15.8612L38.019 16.7307ZM39.4272 18.4515C39.996 18.8611 40.6358 19.1615 41.3368 19.3587L41.8783 17.4333C41.3846 17.2945 40.9604 17.0909 40.5958 16.8285L39.4272 18.4515ZM41.3719 19.3678C42.0736 19.5379 42.8161 19.62 43.5955 19.62V17.62C42.9563 17.62 42.3735 17.5527 41.8431 17.4242L41.3719 19.3678ZM43.5955 19.62C44.4286 19.62 45.1877 19.5292 45.8519 19.3231L45.2591 17.4129C44.8407 17.5428 44.2931 17.62 43.5955 17.62V19.62ZM45.8815 19.3134C46.5039 19.0988 47.0587 18.8137 47.5117 18.4362L46.2313 16.8998C46.0123 17.0823 45.6898 17.2639 45.2295 17.4226L45.8815 19.3134ZM47.5117 18.4362C47.9536 18.0679 48.3017 17.6252 48.5212 17.1041L46.6779 16.3279C46.5986 16.5162 46.4614 16.7081 46.2313 16.8998L47.5117 18.4362ZM48.528 17.0874C48.7209 16.6051 48.8235 16.1061 48.8235 15.596H46.8235C46.8235 15.8326 46.7768 16.0802 46.671 16.3446L48.528 17.0874ZM48.8235 15.596C48.8235 14.7023 48.6194 13.8297 47.9986 13.2089L46.5844 14.6231C46.673 14.7117 46.8235 14.959 46.8235 15.596H48.8235ZM48.0348 13.247C47.6057 12.7702 47.0996 12.4054 46.5133 12.1922L45.8298 14.0718C46.0648 14.1573 46.3054 14.3151 46.5482 14.585L48.0348 13.247ZM46.5172 12.1937C45.7606 11.9149 44.8893 11.6613 43.9086 11.4306L43.4505 13.3774C44.3737 13.5947 45.1638 13.8264 45.8258 14.0703L46.5172 12.1937ZM43.9311 11.4362C43.002 11.1946 41.848 10.8875 40.4684 10.5146L39.9466 12.4454C41.3297 12.8192 42.4904 13.1281 43.4279 13.3718L43.9311 11.4362ZM40.4599 10.5124C39.669 10.306 39.0476 10.0496 38.5741 9.7594L37.529 11.4646C38.2127 11.8837 39.0287 12.206 39.9551 12.4476L40.4599 10.5124ZM38.6062 9.77995C38.1221 9.45718 37.7633 9.12109 37.5075 8.78L35.9075 9.98C36.3237 10.5349 36.861 11.0202 37.4968 11.444L38.6062 9.77995ZM37.5075 8.78C37.2381 8.42078 37.0517 8.05075 36.9383 7.66791L35.0207 8.23609C35.206 8.86125 35.5049 9.44322 35.9075 9.98L37.5075 8.78ZM36.9475 7.70104C36.8382 7.27932 36.7835 6.85032 36.7835 6.412H34.7835C34.7835 7.01901 34.8595 7.61668 35.0115 8.20296L36.9475 7.70104ZM36.7835 6.412C36.7835 5.54078 36.9602 4.84933 37.2705 4.29932L35.5285 3.31668C35.0175 4.22267 34.7835 5.26722 34.7835 6.412H36.7835ZM37.2664 4.30647C37.6245 3.68376 38.0858 3.17781 38.6545 2.77819L37.5046 1.14181C36.6919 1.71286 36.0332 2.4389 35.5326 3.30953L37.2664 4.30647ZM38.6545 2.77819C39.239 2.36745 39.9104 2.06113 40.6789 1.86492L40.1841 -0.0729189C39.198 0.178868 38.3014 0.58188 37.5046 1.14181L38.6545 2.77819ZM40.6981 1.85981C41.49 1.64077 42.287 1.532 43.0915 1.532V-0.468C42.104 -0.468 41.1277 -0.334108 40.1649 -0.0678129L40.6981 1.85981ZM43.0915 1.532C44.0468 1.532 44.9274 1.6598 45.7388 1.9082L46.3242 -0.00420094C45.3063 -0.315799 44.2269 -0.468 43.0915 -0.468V1.532ZM45.7619 1.91496C46.5823 2.14467 47.2734 2.49059 47.8506 2.94306L49.0844 1.36894C48.2803 0.738737 47.3474 0.281992 46.3011 -0.0109644L45.7619 1.91496ZM47.8608 2.95095C48.4502 3.40074 48.9139 3.95628 49.2573 4.62748L51.0378 3.71652C50.5598 2.78239 49.9035 1.99393 49.0742 1.36105L47.8608 2.95095ZM49.2617 4.63601C49.5849 5.25302 49.7635 6.00308 49.7635 6.916H51.7635C51.7635 5.73826 51.5315 4.65898 51.0333 3.70799L49.2617 4.63601ZM50.7635 5.916H47.2635V7.916H50.7635V5.916ZM48.2609 6.84373C48.1541 5.36947 47.6301 4.11985 46.5022 3.36795L45.3928 5.03205C45.833 5.32548 46.1863 5.88653 46.2661 6.98827L48.2609 6.84373ZM46.5157 3.3771C45.5242 2.69249 44.3123 2.388 42.9515 2.388V4.388C44.0174 4.388 44.8028 4.62484 45.3793 5.0229L46.5157 3.3771ZM42.9515 2.388C42.4646 2.388 41.9734 2.44337 41.4791 2.55082L41.9039 4.50518C42.2683 4.42596 42.6171 4.388 42.9515 4.388V2.388ZM41.5202 2.54279C40.9822 2.63636 40.4774 2.81454 40.0145 3.08257L41.0166 4.81343C41.2629 4.67079 41.5422 4.56898 41.8629 4.51321L41.5202 2.54279ZM40.0498 3.06308C39.5538 3.3241 39.1387 3.68983 38.8088 4.14651L40.4302 5.31749C40.5857 5.10217 40.7679 4.94523 40.9813 4.83292L40.0498 3.06308ZM38.7875 4.1773C38.4296 4.71414 38.2835 5.33966 38.2835 5.992H40.2835C40.2835 5.63634 40.3615 5.42186 40.4516 5.2867L38.7875 4.1773ZM38.2835 5.992C38.2835 6.91711 38.5719 7.75917 39.2363 8.39464L40.6187 6.94936C40.4244 6.7635 40.2835 6.48555 40.2835 5.992H38.2835ZM39.269 8.42458C39.8503 8.93318 40.5686 9.2921 41.3855 9.52856L41.9416 7.60744C41.3398 7.43324 40.9008 7.19482 40.586 6.91942L39.269 8.42458ZM41.421 9.53814C41.4202 9.53796 41.4251 9.53919 41.4385 9.54283C41.4508 9.5462 41.4673 9.55077 41.4883 9.5567C41.5304 9.56856 41.5866 9.58469 41.6577 9.60534C41.7998 9.6466 41.9961 9.70433 42.2474 9.7788L42.8156 7.8612C42.326 7.71613 42.0077 7.62326 41.9061 7.59786L41.421 9.53814ZM42.289 9.79014C42.8064 9.91949 43.3805 10.0676 44.0116 10.2347L44.5234 8.30129C43.8852 8.13236 43.302 7.98185 42.7741 7.84986L42.289 9.79014ZM44.0116 10.2347C44.6416 10.4015 45.2527 10.5681 45.8448 10.7346L46.3863 8.80935C45.7837 8.63988 45.1628 8.47053 44.5234 8.30129L44.0116 10.2347ZM45.8799 10.7438C46.4954 10.8931 46.9167 11.0009 47.1568 11.0695L47.7062 9.14647C47.4236 9.06573 46.9676 8.94961 46.3511 8.80015L45.8799 10.7438ZM47.1317 11.062C47.6952 11.2391 48.1636 11.4734 48.5495 11.7554L49.7295 10.1406C49.1448 9.7133 48.4745 9.38756 47.7313 9.15401L47.1317 11.062ZM48.5495 11.7554C48.9485 12.0469 49.2677 12.3763 49.5166 12.7423L51.1704 11.6177C50.7847 11.0504 50.3012 10.5584 49.7295 10.1406L48.5495 11.7554ZM49.5435 12.78C49.8085 13.1333 49.9952 13.509 50.11 13.9107L52.033 13.3613C51.8492 12.7177 51.5505 12.1227 51.1435 11.58L49.5435 12.78ZM50.1195 13.942C50.2573 14.3708 50.3235 14.7903 50.3235 15.204H52.3235C52.3235 14.5723 52.2217 13.9465 52.0235 13.33L50.1195 13.942ZM50.3235 15.204C50.3235 16.1839 50.1203 16.964 49.759 17.5854L51.488 18.5906C52.0601 17.6066 52.3235 16.4641 52.3235 15.204H50.3235ZM49.7553 17.5919C49.3831 18.2431 48.8913 18.7731 48.272 19.1912L49.391 20.8488C50.265 20.2589 50.9679 19.5009 51.4918 18.5841L49.7553 17.5919ZM48.272 19.1912C47.6341 19.6217 46.8986 19.94 46.0545 20.1386L46.5126 22.0854C47.5724 21.836 48.5356 21.4263 49.391 20.8488L48.272 19.1912ZM46.0365 20.143C45.1658 20.3649 44.2781 20.476 43.3715 20.476V22.476C44.4436 22.476 45.4972 22.3444 46.5305 22.081L46.0365 20.143ZM43.3715 20.476C42.3154 20.476 41.3327 20.3462 40.4192 20.0925L39.8839 22.0195C40.9864 22.3258 42.1503 22.476 43.3715 22.476V20.476ZM40.4192 20.0925C39.5228 19.8435 38.7656 19.4686 38.1321 18.9776L36.9069 20.5584C37.7668 21.2248 38.7642 21.7085 39.8839 22.0195L40.4192 20.0925ZM38.1321 18.9776C37.511 18.4963 37.007 17.879 36.6219 17.1088L34.8331 18.0032C35.344 19.025 36.0347 19.8824 36.9069 20.5584L38.1321 18.9776ZM36.6256 17.1161C36.2546 16.3586 36.0443 15.4359 36.0274 14.3209L34.0276 14.3512C34.0481 15.7001 34.3045 16.924 34.8295 17.9959L36.6256 17.1161ZM35.0275 15.336H38.5275V13.336H35.0275V15.336ZM53.9398 1.008V0.00799847H52.9398V1.008H53.9398ZM57.1318 1.008H58.1318V0.00799847H57.1318V1.008ZM57.1318 8.428H56.1318V9.428H57.1318V8.428ZM57.1878 8.428V9.428H57.754L58.0453 8.9425L57.1878 8.428ZM58.9238 6.804L59.413 7.67617L59.4199 7.67224L58.9238 6.804ZM65.2798 7.364L65.9479 6.61995L65.2798 7.364ZM66.6518 21V22H67.6518V21H66.6518ZM63.4598 21H62.4598V22H63.4598V21ZM63.4598 11.9H64.4598V11.8836L64.4592 11.8672L63.4598 11.9ZM62.7318 9.436L61.9725 10.0868L61.9784 10.0936L61.9844 10.1004L62.7318 9.436ZM59.1758 8.96L59.5745 9.87707L59.591 9.8699L59.6072 9.86213L59.1758 8.96ZM58.0838 9.772L58.8312 10.4364L58.8401 10.4264L58.8487 10.4161L58.0838 9.772ZM57.3838 10.976L58.3247 11.3147V11.3147L57.3838 10.976ZM57.1318 21V22H58.1318V21H57.1318ZM53.9398 21H52.9398V22H53.9398V21ZM53.9398 2.008H57.1318V0.00799847H53.9398V2.008ZM56.1318 1.008V8.428H58.1318V1.008H56.1318ZM57.1318 9.428H57.1878V7.428H57.1318V9.428ZM58.0453 8.9425C58.3349 8.45976 58.7761 8.03342 59.413 7.67614L58.4345 5.93186C57.5407 6.43325 56.8246 7.08957 56.3303 7.9135L58.0453 8.9425ZM59.4199 7.67224C60.0445 7.31532 60.74 7.132 61.5278 7.132V5.132C60.4116 5.132 59.371 5.39667 58.4276 5.93576L59.4199 7.67224ZM61.5278 7.132C62.9415 7.132 63.9288 7.49489 64.6116 8.10805L65.9479 6.61995C64.8014 5.59044 63.2874 5.132 61.5278 5.132V7.132ZM64.6116 8.10805C65.2505 8.68172 65.6518 9.60096 65.6518 11.06H67.6518C67.6518 9.23371 67.1384 7.68895 65.9479 6.61995L64.6116 8.10805ZM65.6518 11.06V21H67.6518V11.06H65.6518ZM66.6518 20H63.4598V22H66.6518V20ZM64.4598 21V11.9H62.4598V21H64.4598ZM64.4592 11.8672C64.4191 10.6426 64.1582 9.53555 63.4792 8.77164L61.9844 10.1004C62.2013 10.3444 62.4258 10.8801 62.4603 11.9328L64.4592 11.8672ZM63.491 8.78521C62.7883 7.96535 61.7588 7.652 60.6318 7.652V9.652C61.4087 9.652 61.7792 9.86131 61.9725 10.0868L63.491 8.78521ZM60.6318 7.652C59.9617 7.652 59.3258 7.77978 58.7443 8.05787L59.6072 9.86213C59.8844 9.72955 60.2192 9.652 60.6318 9.652V7.652ZM58.777 8.04293C58.2076 8.29049 57.7179 8.65401 57.3189 9.12786L58.8487 10.4161C59.047 10.1807 59.2852 10.0028 59.5745 9.87707L58.777 8.04293ZM57.3364 9.10764C56.9447 9.54824 56.6496 10.0631 56.4429 10.6373L58.3247 11.3147C58.454 10.9555 58.6255 10.6678 58.8312 10.4364L57.3364 9.10764ZM56.4429 10.6373C56.2337 11.2183 56.1318 11.8281 56.1318 12.46H58.1318C58.1318 12.0465 58.1978 11.667 58.3247 11.3147L56.4429 10.6373ZM56.1318 12.46V21H58.1318V12.46H56.1318ZM57.1318 20H53.9398V22H57.1318V20ZM54.9398 21V1.008H52.9398V21H54.9398ZM73.5459 20.832L73.1451 21.7482L73.1565 21.7531L73.168 21.7578L73.5459 20.832ZM71.2499 19.236L70.5127 19.9117L70.5178 19.9172L70.5229 19.9226L71.2499 19.236ZM69.8219 16.828L68.8751 17.1499L68.878 17.1583L68.881 17.1667L69.8219 16.828ZM69.8219 10.696L68.881 10.3573L68.878 10.3657L68.8751 10.3741L69.8219 10.696ZM71.2499 8.288L70.5229 7.60138L70.5178 7.60679L70.5127 7.61227L71.2499 8.288ZM73.5459 6.72L73.9305 7.64312L73.9398 7.63914L73.5459 6.72ZM79.7339 6.72L79.3331 7.63616L79.3445 7.64114L79.356 7.64585L79.7339 6.72ZM82.0299 8.288L81.2927 8.96372L81.2978 8.96921L81.3029 8.97462L82.0299 8.288ZM83.4579 10.696L82.5111 11.0179L82.514 11.0263L82.517 11.0347L83.4579 10.696ZM83.4579 16.828L82.517 16.4893L82.514 16.4977L82.5111 16.5061L83.4579 16.828ZM82.0299 19.236L81.3029 18.5494L81.2978 18.5548L81.2927 18.5603L82.0299 19.236ZM79.7339 20.832L80.1185 21.7551L80.1278 21.7511L79.7339 20.832ZM78.5019 18.424L78.0058 17.5558V17.5558L78.5019 18.424ZM79.7899 17.248L78.9677 16.6788V16.6788L79.7899 17.248ZM80.5179 15.624L79.5531 15.3609L79.5503 15.3711L79.5478 15.3815L80.5179 15.624ZM80.5179 11.9L79.546 12.1356L79.5494 12.1494L79.5531 12.1631L80.5179 11.9ZM79.7899 10.276L78.9677 10.8452L78.973 10.8528L78.9784 10.8603L79.7899 10.276ZM78.5019 9.1L78.0058 9.96824L78.5019 9.1ZM73.5179 10.276L74.3294 10.8603L74.3348 10.8528L74.3401 10.8452L73.5179 10.276ZM72.7619 11.9L71.7971 11.6369L71.7934 11.6506L71.79 11.6644L72.7619 11.9ZM72.7619 15.624L71.79 15.8596L71.7943 15.8773L71.7992 15.8947L72.7619 15.624ZM73.5179 17.248L72.6957 17.8172L73.5179 17.248ZM74.8059 18.424L75.302 17.5558L74.8059 18.424ZM76.6539 20.392C75.6043 20.392 74.6998 20.2229 73.9238 19.9062L73.168 21.7578C74.2214 22.1878 75.3889 22.392 76.6539 22.392V20.392ZM73.9467 19.9158C73.1665 19.5745 72.5141 19.1181 71.9769 18.5494L70.5229 19.9226C71.2551 20.6979 72.1333 21.3055 73.1451 21.7482L73.9467 19.9158ZM71.987 18.5603C71.4682 17.9943 71.0579 17.309 70.7628 16.4893L68.881 17.1667C69.2579 18.2137 69.7995 19.1337 70.5127 19.9117L71.987 18.5603ZM70.7687 16.5061C70.491 15.6895 70.3459 14.7732 70.3459 13.748H68.3459C68.3459 14.9628 68.5181 16.0999 68.8751 17.1499L70.7687 16.5061ZM70.3459 13.748C70.3459 12.7434 70.4904 11.8362 70.7687 11.0179L68.8751 10.3741C68.5187 11.4225 68.3459 12.5499 68.3459 13.748H70.3459ZM70.7628 11.0347C71.0579 10.215 71.4682 9.52968 71.987 8.96372L70.5127 7.61227C69.7995 8.39031 69.2579 9.3103 68.881 10.3573L70.7628 11.0347ZM71.9769 8.97462C72.5105 8.40967 73.1573 7.96523 73.9305 7.64308L73.1613 5.79692C72.1424 6.22143 71.2586 6.82233 70.5229 7.60138L71.9769 8.97462ZM73.9398 7.63914C74.7114 7.30847 75.6101 7.132 76.6539 7.132V5.132C75.383 5.132 74.2097 5.34753 73.152 5.80085L73.9398 7.63914ZM76.6539 7.132C77.6982 7.132 78.5845 7.30864 79.3331 7.63616L80.1347 5.80384C79.0913 5.34736 77.9243 5.132 76.6539 5.132V7.132ZM79.356 7.64585C80.1455 7.96811 80.7847 8.4095 81.2927 8.96372L82.767 7.61227C82.0431 6.8225 81.1516 6.21856 80.1118 5.79415L79.356 7.64585ZM81.3029 8.97462C81.8325 9.53539 82.2369 10.2113 82.5111 11.0179L84.4047 10.3741C84.0442 9.31403 83.4966 8.38461 82.7569 7.60138L81.3029 8.97462ZM82.517 11.0347C82.8098 11.8481 82.9619 12.7495 82.9619 13.748H84.9619C84.9619 12.5439 84.778 11.4106 84.3988 10.3573L82.517 11.0347ZM82.9619 13.748C82.9619 14.7673 82.8092 15.6777 82.517 16.4893L84.3988 17.1667C84.7786 16.1117 84.9619 14.9687 84.9619 13.748H82.9619ZM82.5111 16.5061C82.2369 17.3127 81.8325 17.9886 81.3029 18.5494L82.7569 19.9226C83.4966 19.1394 84.0442 18.21 84.4047 17.1499L82.5111 16.5061ZM81.2927 18.5603C80.7811 19.1184 80.1363 19.5716 79.34 19.9129L80.1278 21.7511C81.1608 21.3084 82.0467 20.6976 82.767 19.9117L81.2927 18.5603ZM79.3493 19.9089C78.5962 20.2227 77.7041 20.392 76.6539 20.392V22.392C77.9184 22.392 79.0796 22.188 80.1185 21.7551L79.3493 19.9089ZM76.6539 19.872C77.506 19.872 78.2993 19.6915 78.998 19.2922L78.0058 17.5558C77.6591 17.7538 77.2204 17.872 76.6539 17.872V19.872ZM78.998 19.2922C79.6477 18.921 80.1894 18.4278 80.6121 17.8172L78.9677 16.6788C78.7184 17.0389 78.4014 17.3297 78.0058 17.5558L78.998 19.2922ZM80.6121 17.8172C81.0196 17.2286 81.3107 16.5757 81.488 15.8665L79.5478 15.3815C79.4264 15.867 79.2322 16.2968 78.9677 16.6788L80.6121 17.8172ZM81.4827 15.8871C81.6739 15.1859 81.7699 14.4721 81.7699 13.748H79.7699C79.7699 14.2932 79.6979 14.8301 79.5531 15.3609L81.4827 15.8871ZM81.7699 13.748C81.7699 13.0399 81.6732 12.3355 81.4827 11.6369L79.5531 12.1631C79.6986 12.6965 79.7699 13.2241 79.7699 13.748H81.7699ZM81.4897 11.6644C81.3131 10.9358 81.0202 10.2734 80.6014 9.69169L78.9784 10.8603C79.2315 11.2119 79.424 11.6322 79.546 12.1356L81.4897 11.6644ZM80.6121 9.70679C80.1894 9.0962 79.6477 8.60299 78.998 8.23176L78.0058 9.96824C78.4014 10.1943 78.7184 10.4851 78.9677 10.8452L80.6121 9.70679ZM78.998 8.23176C78.2993 7.83248 77.506 7.652 76.6539 7.652V9.652C77.2204 9.652 77.6591 9.77019 78.0058 9.96824L78.998 8.23176ZM76.6539 7.652C75.8017 7.652 75.0085 7.83248 74.3098 8.23176L75.302 9.96824C75.6486 9.77019 76.0874 9.652 76.6539 9.652V7.652ZM74.3098 8.23176C73.6601 8.60299 73.1184 9.0962 72.6957 9.70679L74.3401 10.8452C74.5894 10.4851 74.9064 10.1943 75.302 9.96824L74.3098 8.23176ZM72.7064 9.69169C72.2932 10.2655 71.9931 10.9182 71.7971 11.6369L73.7267 12.1631C73.8667 11.6498 74.0706 11.2198 74.3294 10.8603L72.7064 9.69169ZM71.79 11.6644C71.6226 12.3553 71.5379 13.0504 71.5379 13.748H73.5379C73.5379 13.2136 73.6026 12.6767 73.7337 12.1356L71.79 11.6644ZM71.5379 13.748C71.5379 14.4619 71.622 15.1664 71.79 15.8596L73.7337 15.3884C73.6031 14.8496 73.5379 14.3034 73.5379 13.748H71.5379ZM71.7992 15.8947C71.9957 16.5932 72.2935 17.2363 72.6957 17.8172L74.3401 16.6788C74.0703 16.2891 73.8641 15.8495 73.7245 15.3533L71.7992 15.8947ZM72.6957 17.8172C73.1184 18.4278 73.6601 18.921 74.3098 19.2922L75.302 17.5558C74.9064 17.3297 74.5894 17.0389 74.3401 16.6788L72.6957 17.8172ZM74.3098 19.2922C75.0085 19.6915 75.8017 19.872 76.6539 19.872V17.872C76.0874 17.872 75.6486 17.7538 75.302 17.5558L74.3098 19.2922ZM86.6995 6.524V5.524H85.6995V6.524H86.6995ZM89.7235 6.524H90.7235V5.524H89.7235V6.524ZM89.7235 8.484H88.7235V9.484H89.7235V8.484ZM89.7795 8.484V9.484H90.3795L90.6619 8.95459L89.7795 8.484ZM91.6555 6.692L92.0597 7.60669L92.0685 7.60279L92.0773 7.59872L91.6555 6.692ZM97.2275 6.748L96.7883 7.64638L96.8002 7.65219L96.8123 7.65769L97.2275 6.748ZM99.3555 8.4L98.5706 9.0197L98.5788 9.0298L99.3555 8.4ZM100.616 10.836L99.6577 11.1233L100.616 10.836ZM100.644 16.66L99.682 16.3853L99.6794 16.3944L99.677 16.4036L100.644 16.66ZM99.4955 19.096L98.6905 18.5028L98.6878 18.5065L99.4955 19.096ZM97.5635 20.776L98.0276 21.6618L98.0358 21.6575L98.0439 21.6531L97.5635 20.776ZM93.3915 21.252L93.5877 20.2714L93.5687 20.2676L93.5495 20.2646L93.3915 21.252ZM92.0475 20.86L92.4463 19.9429L92.0475 20.86ZM90.8435 20.16L90.1994 20.9249L90.221 20.9431L90.2435 20.96L90.8435 20.16ZM89.9475 19.124L90.7978 18.5976L90.5046 18.124H89.9475V19.124ZM89.8915 19.124V18.124H88.8915V19.124H89.8915ZM89.8915 26.348V27.348H90.8915V26.348H89.8915ZM86.6995 26.348H85.6995V27.348H86.6995V26.348ZM97.5915 11.872L96.6268 12.1351L97.5915 11.872ZM96.8355 10.248L96.0134 10.8172L96.0186 10.8248L96.024 10.8323L96.8355 10.248ZM95.5755 9.1L95.0657 9.96029L95.0777 9.96739L95.0899 9.97416L95.5755 9.1ZM90.7875 10.052L89.9836 9.45711L89.976 9.4677L90.7875 10.052ZM90.0315 15.82L89.0648 16.0759L89.0694 16.093L89.0745 16.11L90.0315 15.82ZM90.8435 17.416L91.6276 16.7953L90.8435 17.416ZM92.1035 18.48L91.6294 19.3605L91.6363 19.3642L91.6432 19.3678L92.1035 18.48ZM95.6875 18.424L95.1777 17.5637V17.5637L95.6875 18.424ZM96.9195 17.276L96.0973 16.7068L96.0926 16.7137L96.9195 17.276ZM97.6195 15.652L96.6477 15.4164L96.6451 15.4273L96.6426 15.4383L97.6195 15.652ZM86.6995 7.524H89.7235V5.524H86.6995V7.524ZM88.7235 6.524V8.484H90.7235V6.524H88.7235ZM89.7235 9.484H89.7795V7.484H89.7235V9.484ZM90.6619 8.95459C91.0142 8.29409 91.4794 7.86311 92.0597 7.60669L91.2514 5.77731C90.2264 6.23022 89.4409 6.99391 88.8972 8.01341L90.6619 8.95459ZM92.0773 7.59872C92.7407 7.29016 93.4638 7.132 94.2595 7.132V5.132C93.1886 5.132 92.1757 5.34718 91.2338 5.78528L92.0773 7.59872ZM94.2595 7.132C95.2786 7.132 96.1117 7.31556 96.7883 7.64638L97.6668 5.84962C96.6634 5.3591 95.5178 5.132 94.2595 5.132V7.132ZM96.8123 7.65769C97.5331 7.98675 98.1135 8.44057 98.5707 9.01964L100.14 7.78036C99.4776 6.94077 98.6394 6.29325 97.6428 5.83831L96.8123 7.65769ZM98.5788 9.0298C99.0491 9.60989 99.4116 10.3028 99.6577 11.1233L101.573 10.5487C101.26 9.50248 100.782 8.57144 100.132 7.7702L98.5788 9.0298ZM99.6577 11.1233C99.9073 11.9553 100.036 12.8564 100.036 13.832H102.036C102.036 12.6796 101.884 11.5833 101.573 10.5487L99.6577 11.1233ZM100.036 13.832C100.036 14.7117 99.9173 15.5618 99.682 16.3853L101.605 16.9347C101.892 15.9289 102.036 14.8937 102.036 13.832H100.036ZM99.677 16.4036C99.4641 17.2059 99.1333 17.9019 98.6905 18.5028L100.301 19.6892C100.903 18.8715 101.338 17.9434 101.61 16.9164L99.677 16.4036ZM98.6878 18.5065C98.2744 19.073 97.7443 19.5369 97.0832 19.8989L98.0439 21.6531C98.9508 21.1564 99.7087 20.5003 100.303 19.6855L98.6878 18.5065ZM97.0995 19.8902C96.4849 20.2121 95.7264 20.392 94.7915 20.392V22.392C95.9847 22.392 97.0742 22.1612 98.0276 21.6618L97.0995 19.8902ZM94.7915 20.392C94.392 20.392 93.991 20.3521 93.5877 20.2714L93.1954 22.2326C93.7254 22.3386 94.2577 22.392 94.7915 22.392V20.392ZM93.5495 20.2646C93.165 20.203 92.7979 20.0958 92.4463 19.9429L91.6488 21.7771C92.1559 21.9975 92.6848 22.1516 93.2336 22.2394L93.5495 20.2646ZM92.4463 19.9429C92.0881 19.7872 91.7544 19.5931 91.4436 19.36L90.2435 20.96C90.6794 21.2869 91.1483 21.5595 91.6488 21.7771L92.4463 19.9429ZM91.4877 19.3951C91.2134 19.1641 90.9845 18.8992 90.7978 18.5976L89.0973 19.6504C89.3959 20.1328 89.7643 20.5585 90.1994 20.9249L91.4877 19.3951ZM89.9475 18.124H89.8915V20.124H89.9475V18.124ZM88.8915 19.124V26.348H90.8915V19.124H88.8915ZM89.8915 25.348H86.6995V27.348H89.8915V25.348ZM87.6995 26.348V6.524H85.6995V26.348H87.6995ZM98.8435 13.776C98.8435 13.0359 98.7482 12.3126 98.5563 11.6089L96.6268 12.1351C96.7709 12.6634 96.8435 13.2095 96.8435 13.776H98.8435ZM98.5563 11.6089C98.3603 10.8902 98.0602 10.2375 97.6471 9.66369L96.024 10.8323C96.2829 11.1918 96.4868 11.6218 96.6268 12.1351L98.5563 11.6089ZM97.6577 9.67879C97.2366 9.07045 96.7025 8.58215 96.0612 8.22584L95.0899 9.97416C95.4566 10.1779 95.7625 10.4549 96.0134 10.8172L97.6577 9.67879ZM96.0854 8.23971C95.4098 7.83936 94.6511 7.652 93.8395 7.652V9.652C94.3347 9.652 94.7333 9.76331 95.0657 9.96029L96.0854 8.23971ZM93.8395 7.652C92.2354 7.652 90.8944 8.22646 89.9837 9.45716L91.5914 10.6468C92.062 10.0109 92.7557 9.652 93.8395 9.652V7.652ZM89.976 9.4677C89.1454 10.6214 88.7795 12.0886 88.7795 13.776H90.7795C90.7795 12.3647 91.0857 11.3493 91.5991 10.6363L89.976 9.4677ZM88.7795 13.776C88.7795 14.5811 88.8725 15.3492 89.0648 16.0759L90.9983 15.5641C90.8546 15.0214 90.7795 14.4269 90.7795 13.776H88.7795ZM89.0745 16.11C89.293 16.831 89.6177 17.4786 90.0595 18.0367L91.6276 16.7953C91.3601 16.4574 91.1434 16.041 90.9886 15.53L89.0745 16.11ZM90.0595 18.0367C90.4956 18.5875 91.0198 19.0322 91.6294 19.3605L92.5776 17.5995C92.2167 17.4051 91.9009 17.1405 91.6276 16.7953L90.0595 18.0367ZM91.6432 19.3678C92.3096 19.7133 93.0503 19.872 93.8395 19.872V17.872C93.3222 17.872 92.9055 17.7694 92.5639 17.5922L91.6432 19.3678ZM93.8395 19.872C94.7038 19.872 95.5057 19.6942 96.1973 19.2843L95.1777 17.5637C94.8614 17.7512 94.4314 17.872 93.8395 17.872V19.872ZM96.1973 19.2843C96.8227 18.9137 97.3434 18.431 97.7465 17.8383L96.0926 16.7137C95.861 17.0543 95.5604 17.337 95.1777 17.5637L96.1973 19.2843ZM97.7417 17.8452C98.1547 17.2487 98.4389 16.5858 98.5965 15.8657L96.6426 15.4383C96.5388 15.9128 96.3564 16.3326 96.0974 16.7068L97.7417 17.8452ZM98.5914 15.8876C98.7595 15.1944 98.8435 14.4899 98.8435 13.776H96.8435C96.8435 14.3314 96.7783 14.8776 96.6477 15.4164L98.5914 15.8876Z" fill="black"/>
</g>
<defs>
<filter id="filter0_d_110_178" x="0.0752716" y="0.532227" width="104.96" height="33.8159" filterUnits="userSpaceOnUse" color-interpolation-filters="sRGB">
<feFlood flood-opacity="0" result="BackgroundImageFix"/>
<feColorMatrix in="SourceAlpha" type="matrix" values="0 0 0 0 0 0 0 0 0 0 0 0 0 0 0 0 0 0 127 0" result="hardAlpha"/>
<feOffset dy="4"/>
<feGaussianBlur stdDeviation="2"/>
<feComposite in2="hardAlpha" operator="out"/>
<feColorMatrix type="matrix" values="0 0 0 0 0 0 0 0 0 0 0 0 0 0 0 0 0 0 0.25 0"/>
<feBlend mode="normal" in2="BackgroundImageFix" result="effect1_dropShadow_110_178"/>
<feBlend mode="normal" in="SourceGraphic" in2="effect1_dropShadow_110_178" result="shape"/>
</filter>
</defs>
</svg>
